G04 DesignSpark PCB PRO Gerber Version 10.0 Build 5299*
G04 #@! TF.Part,Single*
G04 #@! TF.FileFunction,Soldermask,Top*
G04 #@! TF.FilePolarity,Negative*
%FSLAX35Y35*%
%MOIN*%
G04 #@! TA.AperFunction,ComponentPad*
%ADD127O,0.03976X0.08307*%
G04 #@! TA.AperFunction,SMDPad,CuDef*
%ADD126R,0.01220X0.04528*%
%ADD130R,0.01614X0.07520*%
%ADD125R,0.02402X0.04528*%
%ADD131R,0.02598X0.07323*%
%ADD133R,0.03189X0.03189*%
G04 #@! TD.AperFunction*
%ADD10C,0.00787*%
G04 #@! TA.AperFunction,ViaPad*
%ADD118C,0.02402*%
%ADD119C,0.02717*%
G04 #@! TA.AperFunction,SMDPad,CuDef*
%AMT122*0 Offset Rectangle Pad at angle 180*4,1,4,0.03520,0.08331,-0.03520,0.08331,-0.03520,-0.03520,0.03520,-0.03520,0.03520,0.08331,0*%
%ADD122T122*%
G04 #@! TA.AperFunction,ViaPad*
%ADD117C,0.03239*%
G04 #@! TA.AperFunction,SMDPad,CuDef*
%ADD124R,0.02402X0.01220*%
%ADD123R,0.02402X0.01614*%
%ADD120R,0.02402X0.02047*%
%ADD121R,0.03583X0.02795*%
%ADD132R,0.03539X0.02839*%
%ADD128R,0.04252X0.03071*%
%ADD129R,0.04331X0.03976*%
G04 #@! TD.AperFunction*
X0Y0D02*
D02*
D10*
X5174Y15510D02*
Y28961D01*
X26530D01*
G75*
G03*
X27529Y29959I0J998D01*
G01*
Y76136D01*
G75*
G03*
X26530Y77135I-998J0D01*
G01*
X5174D01*
Y111829D01*
X26530D01*
G75*
G03*
X27529Y112828I0J998D01*
G01*
Y162126D01*
G75*
G03*
X26530Y163124I-998J0D01*
G01*
X25532D01*
Y173091D01*
G75*
G03*
X24533Y174090I-998J0D01*
G01*
X5174D01*
Y190706D01*
X103598D01*
Y174089D01*
X83690D01*
G75*
G03*
X82691Y173090I0J-999D01*
G01*
Y163124D01*
X81693D01*
G75*
G03*
X80695Y162126I0J-998D01*
G01*
Y112828D01*
G75*
G03*
X81693Y111830I998J0D01*
G01*
X103600D01*
Y77136D01*
X81693D01*
G75*
G03*
X80695Y76138I0J-998D01*
G01*
Y29959D01*
G75*
G03*
X81693Y28961I998J0D01*
G01*
X103600D01*
Y15510D01*
X5174D01*
D02*
D117*
X31647Y139814D03*
X31757Y85899D03*
X32007Y59566D03*
X36375Y139814D03*
X42615Y59566D03*
D02*
D118*
X31795Y166991D03*
Y167766D03*
Y168565D03*
Y169746D03*
Y170534D03*
Y171321D03*
Y183447D03*
Y184235D03*
Y185022D03*
Y186203D03*
Y186991D03*
Y187778D03*
X43628Y133795D03*
Y142531D03*
Y151268D03*
Y160129D03*
X49979Y123964D03*
X49993Y133795D03*
Y142531D03*
Y151268D03*
Y160129D03*
X65811Y166991D03*
Y167766D03*
Y168565D03*
Y169746D03*
Y170534D03*
Y171321D03*
Y183447D03*
Y184235D03*
Y185022D03*
Y186203D03*
Y186991D03*
Y187778D03*
D02*
D119*
X24284Y185589D03*
X36140Y162126D03*
X38779Y184965D03*
X41991Y85400D03*
Y95384D03*
Y105369D03*
X42615Y65431D03*
X43379Y171899D03*
X43803Y46760D03*
X46424Y44589D03*
X47732Y61063D03*
X48731Y85525D03*
Y95384D03*
X48803Y41961D03*
Y185061D03*
X48856Y105369D03*
X51722Y91760D03*
X54097Y96757D03*
X55029Y142483D03*
X55096Y132483D03*
X56344Y91765D03*
X57975Y161002D03*
X58715Y96757D03*
X58803Y185061D03*
X61336Y91890D03*
X61350Y162250D03*
X61424Y42717D03*
X63924Y69260D03*
X66578Y65431D03*
X66702Y52826D03*
X67529Y132483D03*
Y142483D03*
X67576Y122467D03*
X68949Y85400D03*
Y95509D03*
X72208Y104370D03*
Y177259D03*
X76312Y85400D03*
Y174759D03*
X80029Y184983D03*
X90029D03*
D02*
D120*
X81116Y179784D03*
X85053D03*
X88990D03*
D02*
D121*
X73242Y185119D03*
X96864D03*
D02*
D122*
X32512Y22750D03*
X43312D03*
X54112D03*
X64912D03*
X75712D03*
D02*
D123*
X35388Y50061D03*
Y56361D03*
X39719Y50061D03*
Y56361D03*
D02*
D124*
X35388Y52227D03*
Y54195D03*
X39719Y52227D03*
Y54195D03*
D02*
D125*
X36205Y166912D03*
X39354D03*
X58252D03*
X61402D03*
D02*
D126*
X41913D03*
X43882D03*
X45850D03*
X47819D03*
X49787D03*
X51756D03*
X53724D03*
X55693D03*
D02*
D127*
X31795Y169156D03*
Y185613D03*
X65811Y169156D03*
Y185613D03*
D02*
D128*
X34019Y146227D03*
Y153313D03*
D02*
D129*
X57975Y156010D03*
X58100Y148023D03*
X64975Y156010D03*
X65100Y148023D03*
X69318Y58692D03*
X76318D03*
D02*
D130*
X51245Y60564D03*
X55969D03*
X60694D03*
D02*
D131*
X31722Y77105D03*
Y113916D03*
X36722Y77105D03*
Y113916D03*
X41722Y77105D03*
Y113916D03*
X46722Y77105D03*
Y113916D03*
X51722Y77105D03*
Y113916D03*
X56722Y77105D03*
Y113916D03*
X61722Y77105D03*
Y113916D03*
X66722Y77105D03*
Y113916D03*
X71722Y77105D03*
Y113916D03*
X76722Y77105D03*
Y113916D03*
D02*
D132*
X32203Y63185D03*
X37303D03*
X59285Y127958D03*
X64385D03*
D02*
D133*
X69819Y48957D03*
X76315D03*
X0Y0D02*
M02*
