G05
M48
;#@! TF.GenerationSoftware,DesignSpark,DesignSpark PCB PRO,10.0.5299
;#@! TF.CreationDate,2022-09-30T05:27:02--9:00*
;#@! TF.FileFunction,Unplated,1,2,Buried
;FILE_FORMAT=3:5
;TYPE=NONPLATED
INCH,TZ
FMAT,2
T1C000.01575
T2C000.02559
%
T001
X0.26255Y0.16260
X0.26255Y0.18477
X0.26255Y0.20575
X0.26255Y0.22575
X0.26255Y0.24575
X0.26255Y0.26575
X0.26255Y0.28575
X0.26255Y0.77431
X0.26255Y0.79529
X0.26255Y0.81529
X0.26255Y0.83529
X0.26255Y0.85529
X0.26255Y0.87529
X0.26255Y0.89529
X0.26255Y0.91480
X0.26255Y0.93480
X0.26255Y0.95480
X0.26255Y0.97480
X0.26255Y0.99480
X0.26255Y1.01480
X0.26255Y1.03577
X0.26255Y1.05577
X0.26255Y1.07577
X0.26255Y1.09577
X0.26255Y1.11577
X0.81917Y0.18477
X0.81917Y0.20575
X0.81917Y0.22575
X0.81917Y0.24575
X0.81917Y0.26575
X0.81917Y0.28575
X0.81917Y0.77268
X0.81917Y0.79365
X0.81917Y0.81365
X0.81917Y0.83365
X0.81917Y0.85365
X0.81917Y0.87365
X0.81917Y0.89365
X0.81917Y0.91316
X0.81917Y0.93316
X0.81917Y0.95316
X0.81917Y0.97316
X0.81917Y0.99316
X0.81917Y1.01316
X0.81917Y1.03413
X0.81917Y1.05413
X0.81917Y1.07413
X0.81917Y1.09413
X0.81917Y1.11413
X0.81919Y0.16260
T002
X0.37425Y1.71124
X0.60181Y1.71124
M30
