G05
M48
;#@! TF.GenerationSoftware,DesignSpark,DesignSpark PCB PRO,10.0.5299
;#@! TF.CreationDate,2022-09-30T05:27:02--9:00*
;#@! TF.FileFunction,Plated,1,2,Buried
;FILE_FORMAT=3:5
;TYPE=PLATED
INCH,TZ
FMAT,2
T1C000.01181
T2C000.01600
T3C000.02362
%
T001
X0.24284Y1.85589
X0.36140Y1.62126
X0.38779Y1.84965
X0.41991Y0.85400
X0.41991Y0.95384
X0.41991Y1.05369
X0.42615Y0.65431
X0.43379Y1.71899
X0.43628Y1.33795
X0.43628Y1.42531
X0.43628Y1.51268
X0.43628Y1.60129
X0.43803Y0.46760
X0.46424Y0.44589
X0.47732Y0.61063
X0.48731Y0.85525
X0.48731Y0.95384
X0.48803Y0.41961
X0.48803Y1.85061
X0.48856Y1.05369
X0.49979Y1.23964
X0.49993Y1.33795
X0.49993Y1.42531
X0.49993Y1.51268
X0.49993Y1.60129
X0.51722Y0.91760
X0.54097Y0.96757
X0.55029Y1.42483
X0.55096Y1.32483
X0.56344Y0.91765
X0.57975Y1.61002
X0.58715Y0.96757
X0.58803Y1.85061
X0.61336Y0.91890
X0.61350Y1.62250
X0.61424Y0.42717
X0.63924Y0.69260
X0.66578Y0.65431
X0.66702Y0.52826
X0.67529Y1.32483
X0.67529Y1.42483
X0.67576Y1.22467
X0.68949Y0.85400
X0.68949Y0.95509
X0.72208Y1.04370
X0.72208Y1.77259
X0.76312Y0.85400
X0.76312Y1.74759
X0.80029Y1.84983
X0.90029Y1.84983
T002
X0.31647Y1.39814
X0.31757Y0.85899
X0.32007Y0.59566
X0.36375Y1.39814
X0.42615Y0.59566
T003
X0.31795Y1.66991
X0.31795Y1.67766
X0.31795Y1.68565
X0.31795Y1.69156
X0.31795Y1.69746
X0.31795Y1.70534
X0.31795Y1.71321
X0.31795Y1.83447
X0.31795Y1.84235
X0.31795Y1.85022
X0.31795Y1.85613
X0.31795Y1.86203
X0.31795Y1.86991
X0.31795Y1.87778
X0.65811Y1.66991
X0.65811Y1.67766
X0.65811Y1.68565
X0.65811Y1.69156
X0.65811Y1.69746
X0.65811Y1.70534
X0.65811Y1.71321
X0.65811Y1.83447
X0.65811Y1.84235
X0.65811Y1.85022
X0.65811Y1.85613
X0.65811Y1.86203
X0.65811Y1.86991
X0.65811Y1.87778
M30
