G04 DesignSpark PCB PRO Gerber Version 10.0 Build 5299*
G04 #@! TF.Part,Single*
G04 #@! TF.FileFunction,Drillmap*
G04 #@! TF.FilePolarity,Positive*
%FSLAX35Y35*%
%MOIN*%
%ADD13C,0.00500*%
G04 #@! TA.AperFunction,WasherPad*
%ADD78C,0.10000*%
G04 #@! TD.AperFunction*
X0Y0D02*
D02*
D13*
X34284Y191526D02*
Y195276D01*
X37409D01*
X36784Y193401D02*
X34284D01*
Y191526D02*
X37409D01*
X36255Y22198D02*
X37817Y25948D01*
X39380Y22198D01*
X36880Y23760D02*
X38755D01*
X41255Y23135D02*
X41567Y22510D01*
X42192Y22198D01*
X43442D01*
X44067Y22510D01*
X44380Y23135D01*
X44067Y23760D01*
X43442Y24073D01*
X42192D01*
X41567Y24385D01*
X41255Y25010D01*
X41567Y25635D01*
X42192Y25948D01*
X43442D01*
X44067Y25635D01*
X44380Y25010D01*
X36255Y24415D02*
X37817Y28165D01*
X39380Y24415D01*
X36880Y25977D02*
X38755D01*
X41255Y25352D02*
X41567Y24727D01*
X42192Y24415D01*
X43442D01*
X44067Y24727D01*
X44380Y25352D01*
X44067Y25977D01*
X43442Y26290D01*
X42192D01*
X41567Y26602D01*
X41255Y27227D01*
X41567Y27852D01*
X42192Y28165D01*
X43442D01*
X44067Y27852D01*
X44380Y27227D01*
X36255Y26512D02*
X37817Y30262D01*
X39380Y26512D01*
X36880Y28075D02*
X38755D01*
X41255Y27450D02*
X41567Y26825D01*
X42192Y26512D01*
X43442D01*
X44067Y26825D01*
X44380Y27450D01*
X44067Y28075D01*
X43442Y28387D01*
X42192D01*
X41567Y28700D01*
X41255Y29325D01*
X41567Y29950D01*
X42192Y30262D01*
X43442D01*
X44067Y29950D01*
X44380Y29325D01*
X36255Y28512D02*
X37817Y32262D01*
X39380Y28512D01*
X36880Y30075D02*
X38755D01*
X41255Y29450D02*
X41567Y28825D01*
X42192Y28512D01*
X43442D01*
X44067Y28825D01*
X44380Y29450D01*
X44067Y30075D01*
X43442Y30387D01*
X42192D01*
X41567Y30700D01*
X41255Y31325D01*
X41567Y31950D01*
X42192Y32262D01*
X43442D01*
X44067Y31950D01*
X44380Y31325D01*
X36255Y30512D02*
X37817Y34262D01*
X39380Y30512D01*
X36880Y32075D02*
X38755D01*
X41255Y31450D02*
X41567Y30825D01*
X42192Y30512D01*
X43442D01*
X44067Y30825D01*
X44380Y31450D01*
X44067Y32075D01*
X43442Y32387D01*
X42192D01*
X41567Y32700D01*
X41255Y33325D01*
X41567Y33950D01*
X42192Y34262D01*
X43442D01*
X44067Y33950D01*
X44380Y33325D01*
X36255Y32512D02*
X37817Y36262D01*
X39380Y32512D01*
X36880Y34075D02*
X38755D01*
X41255Y33450D02*
X41567Y32825D01*
X42192Y32512D01*
X43442D01*
X44067Y32825D01*
X44380Y33450D01*
X44067Y34075D01*
X43442Y34387D01*
X42192D01*
X41567Y34700D01*
X41255Y35325D01*
X41567Y35950D01*
X42192Y36262D01*
X43442D01*
X44067Y35950D01*
X44380Y35325D01*
X36255Y34512D02*
X37817Y38262D01*
X39380Y34512D01*
X36880Y36075D02*
X38755D01*
X41255Y35450D02*
X41567Y34825D01*
X42192Y34512D01*
X43442D01*
X44067Y34825D01*
X44380Y35450D01*
X44067Y36075D01*
X43442Y36387D01*
X42192D01*
X41567Y36700D01*
X41255Y37325D01*
X41567Y37950D01*
X42192Y38262D01*
X43442D01*
X44067Y37950D01*
X44380Y37325D01*
X36255Y83369D02*
X37817Y87119D01*
X39380Y83369D01*
X36880Y84931D02*
X38755D01*
X41255Y84307D02*
X41567Y83681D01*
X42192Y83369D01*
X43442D01*
X44067Y83681D01*
X44380Y84307D01*
X44067Y84931D01*
X43442Y85244D01*
X42192D01*
X41567Y85557D01*
X41255Y86181D01*
X41567Y86807D01*
X42192Y87119D01*
X43442D01*
X44067Y86807D01*
X44380Y86181D01*
X36255Y85467D02*
X37817Y89217D01*
X39380Y85467D01*
X36880Y87029D02*
X38755D01*
X41255Y86404D02*
X41567Y85779D01*
X42192Y85467D01*
X43442D01*
X44067Y85779D01*
X44380Y86404D01*
X44067Y87029D01*
X43442Y87342D01*
X42192D01*
X41567Y87654D01*
X41255Y88279D01*
X41567Y88904D01*
X42192Y89217D01*
X43442D01*
X44067Y88904D01*
X44380Y88279D01*
X36255Y87467D02*
X37817Y91217D01*
X39380Y87467D01*
X36880Y89029D02*
X38755D01*
X41255Y88404D02*
X41567Y87779D01*
X42192Y87467D01*
X43442D01*
X44067Y87779D01*
X44380Y88404D01*
X44067Y89029D01*
X43442Y89342D01*
X42192D01*
X41567Y89654D01*
X41255Y90279D01*
X41567Y90904D01*
X42192Y91217D01*
X43442D01*
X44067Y90904D01*
X44380Y90279D01*
X36255Y89467D02*
X37817Y93217D01*
X39380Y89467D01*
X36880Y91029D02*
X38755D01*
X41255Y90404D02*
X41567Y89779D01*
X42192Y89467D01*
X43442D01*
X44067Y89779D01*
X44380Y90404D01*
X44067Y91029D01*
X43442Y91342D01*
X42192D01*
X41567Y91654D01*
X41255Y92279D01*
X41567Y92904D01*
X42192Y93217D01*
X43442D01*
X44067Y92904D01*
X44380Y92279D01*
X36255Y91467D02*
X37817Y95217D01*
X39380Y91467D01*
X36880Y93029D02*
X38755D01*
X41255Y92404D02*
X41567Y91779D01*
X42192Y91467D01*
X43442D01*
X44067Y91779D01*
X44380Y92404D01*
X44067Y93029D01*
X43442Y93342D01*
X42192D01*
X41567Y93654D01*
X41255Y94279D01*
X41567Y94904D01*
X42192Y95217D01*
X43442D01*
X44067Y94904D01*
X44380Y94279D01*
X36255Y93467D02*
X37817Y97217D01*
X39380Y93467D01*
X36880Y95029D02*
X38755D01*
X41255Y94404D02*
X41567Y93779D01*
X42192Y93467D01*
X43442D01*
X44067Y93779D01*
X44380Y94404D01*
X44067Y95029D01*
X43442Y95342D01*
X42192D01*
X41567Y95654D01*
X41255Y96279D01*
X41567Y96904D01*
X42192Y97217D01*
X43442D01*
X44067Y96904D01*
X44380Y96279D01*
X36255Y95467D02*
X37817Y99217D01*
X39380Y95467D01*
X36880Y97029D02*
X38755D01*
X41255Y96404D02*
X41567Y95779D01*
X42192Y95467D01*
X43442D01*
X44067Y95779D01*
X44380Y96404D01*
X44067Y97029D01*
X43442Y97342D01*
X42192D01*
X41567Y97654D01*
X41255Y98279D01*
X41567Y98904D01*
X42192Y99217D01*
X43442D01*
X44067Y98904D01*
X44380Y98279D01*
X36255Y97417D02*
X37817Y101167D01*
X39380Y97417D01*
X36880Y98980D02*
X38755D01*
X41255Y98355D02*
X41567Y97730D01*
X42192Y97417D01*
X43442D01*
X44067Y97730D01*
X44380Y98355D01*
X44067Y98980D01*
X43442Y99292D01*
X42192D01*
X41567Y99605D01*
X41255Y100230D01*
X41567Y100855D01*
X42192Y101167D01*
X43442D01*
X44067Y100855D01*
X44380Y100230D01*
X36255Y99417D02*
X37817Y103167D01*
X39380Y99417D01*
X36880Y100980D02*
X38755D01*
X41255Y100355D02*
X41567Y99730D01*
X42192Y99417D01*
X43442D01*
X44067Y99730D01*
X44380Y100355D01*
X44067Y100980D01*
X43442Y101292D01*
X42192D01*
X41567Y101605D01*
X41255Y102230D01*
X41567Y102855D01*
X42192Y103167D01*
X43442D01*
X44067Y102855D01*
X44380Y102230D01*
X36255Y101417D02*
X37817Y105167D01*
X39380Y101417D01*
X36880Y102980D02*
X38755D01*
X41255Y102355D02*
X41567Y101730D01*
X42192Y101417D01*
X43442D01*
X44067Y101730D01*
X44380Y102355D01*
X44067Y102980D01*
X43442Y103292D01*
X42192D01*
X41567Y103605D01*
X41255Y104230D01*
X41567Y104855D01*
X42192Y105167D01*
X43442D01*
X44067Y104855D01*
X44380Y104230D01*
X36255Y103417D02*
X37817Y107167D01*
X39380Y103417D01*
X36880Y104980D02*
X38755D01*
X41255Y104355D02*
X41567Y103730D01*
X42192Y103417D01*
X43442D01*
X44067Y103730D01*
X44380Y104355D01*
X44067Y104980D01*
X43442Y105292D01*
X42192D01*
X41567Y105605D01*
X41255Y106230D01*
X41567Y106855D01*
X42192Y107167D01*
X43442D01*
X44067Y106855D01*
X44380Y106230D01*
X36255Y105417D02*
X37817Y109167D01*
X39380Y105417D01*
X36880Y106980D02*
X38755D01*
X41255Y106355D02*
X41567Y105730D01*
X42192Y105417D01*
X43442D01*
X44067Y105730D01*
X44380Y106355D01*
X44067Y106980D01*
X43442Y107292D01*
X42192D01*
X41567Y107605D01*
X41255Y108230D01*
X41567Y108855D01*
X42192Y109167D01*
X43442D01*
X44067Y108855D01*
X44380Y108230D01*
X36255Y107417D02*
X37817Y111167D01*
X39380Y107417D01*
X36880Y108980D02*
X38755D01*
X41255Y108355D02*
X41567Y107730D01*
X42192Y107417D01*
X43442D01*
X44067Y107730D01*
X44380Y108355D01*
X44067Y108980D01*
X43442Y109292D01*
X42192D01*
X41567Y109605D01*
X41255Y110230D01*
X41567Y110855D01*
X42192Y111167D01*
X43442D01*
X44067Y110855D01*
X44380Y110230D01*
X36255Y109515D02*
X37817Y113265D01*
X39380Y109515D01*
X36880Y111077D02*
X38755D01*
X41255Y110452D02*
X41567Y109827D01*
X42192Y109515D01*
X43442D01*
X44067Y109827D01*
X44380Y110452D01*
X44067Y111077D01*
X43442Y111390D01*
X42192D01*
X41567Y111702D01*
X41255Y112327D01*
X41567Y112952D01*
X42192Y113265D01*
X43442D01*
X44067Y112952D01*
X44380Y112327D01*
X36255Y111515D02*
X37817Y115265D01*
X39380Y111515D01*
X36880Y113077D02*
X38755D01*
X41255Y112452D02*
X41567Y111827D01*
X42192Y111515D01*
X43442D01*
X44067Y111827D01*
X44380Y112452D01*
X44067Y113077D01*
X43442Y113390D01*
X42192D01*
X41567Y113702D01*
X41255Y114327D01*
X41567Y114952D01*
X42192Y115265D01*
X43442D01*
X44067Y114952D01*
X44380Y114327D01*
X36255Y113515D02*
X37817Y117265D01*
X39380Y113515D01*
X36880Y115077D02*
X38755D01*
X41255Y114452D02*
X41567Y113827D01*
X42192Y113515D01*
X43442D01*
X44067Y113827D01*
X44380Y114452D01*
X44067Y115077D01*
X43442Y115390D01*
X42192D01*
X41567Y115702D01*
X41255Y116327D01*
X41567Y116952D01*
X42192Y117265D01*
X43442D01*
X44067Y116952D01*
X44380Y116327D01*
X36255Y115515D02*
X37817Y119265D01*
X39380Y115515D01*
X36880Y117077D02*
X38755D01*
X41255Y116452D02*
X41567Y115827D01*
X42192Y115515D01*
X43442D01*
X44067Y115827D01*
X44380Y116452D01*
X44067Y117077D01*
X43442Y117390D01*
X42192D01*
X41567Y117702D01*
X41255Y118327D01*
X41567Y118952D01*
X42192Y119265D01*
X43442D01*
X44067Y118952D01*
X44380Y118327D01*
X36255Y117515D02*
X37817Y121265D01*
X39380Y117515D01*
X36880Y119077D02*
X38755D01*
X41255Y118452D02*
X41567Y117827D01*
X42192Y117515D01*
X43442D01*
X44067Y117827D01*
X44380Y118452D01*
X44067Y119077D01*
X43442Y119390D01*
X42192D01*
X41567Y119702D01*
X41255Y120327D01*
X41567Y120952D01*
X42192Y121265D01*
X43442D01*
X44067Y120952D01*
X44380Y120327D01*
X43835Y147314D02*
X44772D01*
Y147002D01*
X44460Y146377D01*
X44147Y146064D01*
X43522Y145752D01*
X42897D01*
X42272Y146064D01*
X41960Y146377D01*
X41647Y147002D01*
Y148252D01*
X41960Y148877D01*
X42272Y149189D01*
X42897Y149502D01*
X43522D01*
X44147Y149189D01*
X44460Y148877D01*
X44772Y148252D01*
X43945Y93399D02*
X44883D01*
Y93087D01*
X44570Y92462D01*
X44257Y92149D01*
X43633Y91837D01*
X43007D01*
X42383Y92149D01*
X42070Y92462D01*
X41757Y93087D01*
Y94337D01*
X42070Y94962D01*
X42383Y95274D01*
X43007Y95587D01*
X43633D01*
X44257Y95274D01*
X44570Y94962D01*
X44883Y94337D01*
X41795Y172928D02*
X43358Y176678D01*
X44920Y172928D01*
X42420Y174491D02*
X44295D01*
X48983D02*
X49920D01*
Y174178D01*
X49608Y173553D01*
X49295Y173241D01*
X48670Y172928D01*
X48045D01*
X47420Y173241D01*
X47108Y173553D01*
X46795Y174178D01*
Y175428D01*
X47108Y176053D01*
X47420Y176366D01*
X48045Y176678D01*
X48670D01*
X49295Y176366D01*
X49608Y176053D01*
X49920Y175428D01*
X41795Y173704D02*
X43358Y177454D01*
X44920Y173704D01*
X42420Y175266D02*
X44295D01*
X48983D02*
X49920D01*
Y174954D01*
X49608Y174329D01*
X49295Y174016D01*
X48670Y173704D01*
X48045D01*
X47420Y174016D01*
X47108Y174329D01*
X46795Y174954D01*
Y176204D01*
X47108Y176829D01*
X47420Y177141D01*
X48045Y177454D01*
X48670D01*
X49295Y177141D01*
X49608Y176829D01*
X49920Y176204D01*
X41795Y174503D02*
X43358Y178253D01*
X44920Y174503D01*
X42420Y176065D02*
X44295D01*
X48983D02*
X49920D01*
Y175753D01*
X49608Y175128D01*
X49295Y174815D01*
X48670Y174503D01*
X48045D01*
X47420Y174815D01*
X47108Y175128D01*
X46795Y175753D01*
Y177003D01*
X47108Y177628D01*
X47420Y177941D01*
X48045Y178253D01*
X48670D01*
X49295Y177941D01*
X49608Y177628D01*
X49920Y177003D01*
X41795Y175093D02*
X43358Y178843D01*
X44920Y175093D01*
X42420Y176656D02*
X44295D01*
X48983D02*
X49920D01*
Y176343D01*
X49608Y175719D01*
X49295Y175406D01*
X48670Y175093D01*
X48045D01*
X47420Y175406D01*
X47108Y175719D01*
X46795Y176343D01*
Y177593D01*
X47108Y178219D01*
X47420Y178531D01*
X48045Y178843D01*
X48670D01*
X49295Y178531D01*
X49608Y178219D01*
X49920Y177593D01*
X41795Y175684D02*
X43358Y179434D01*
X44920Y175684D01*
X42420Y177246D02*
X44295D01*
X48983D02*
X49920D01*
Y176934D01*
X49608Y176309D01*
X49295Y175996D01*
X48670Y175684D01*
X48045D01*
X47420Y175996D01*
X47108Y176309D01*
X46795Y176934D01*
Y178184D01*
X47108Y178809D01*
X47420Y179122D01*
X48045Y179434D01*
X48670D01*
X49295Y179122D01*
X49608Y178809D01*
X49920Y178184D01*
X41795Y176471D02*
X43358Y180221D01*
X44920Y176471D01*
X42420Y178034D02*
X44295D01*
X48983D02*
X49920D01*
Y177721D01*
X49608Y177096D01*
X49295Y176784D01*
X48670Y176471D01*
X48045D01*
X47420Y176784D01*
X47108Y177096D01*
X46795Y177721D01*
Y178971D01*
X47108Y179596D01*
X47420Y179909D01*
X48045Y180221D01*
X48670D01*
X49295Y179909D01*
X49608Y179596D01*
X49920Y178971D01*
X41795Y177259D02*
X43358Y181009D01*
X44920Y177259D01*
X42420Y178821D02*
X44295D01*
X48983D02*
X49920D01*
Y178509D01*
X49608Y177884D01*
X49295Y177571D01*
X48670Y177259D01*
X48045D01*
X47420Y177571D01*
X47108Y177884D01*
X46795Y178509D01*
Y179759D01*
X47108Y180384D01*
X47420Y180696D01*
X48045Y181009D01*
X48670D01*
X49295Y180696D01*
X49608Y180384D01*
X49920Y179759D01*
X41795Y189385D02*
X43358Y193135D01*
X44920Y189385D01*
X42420Y190947D02*
X44295D01*
X48983D02*
X49920D01*
Y190635D01*
X49608Y190010D01*
X49295Y189697D01*
X48670Y189385D01*
X48045D01*
X47420Y189697D01*
X47108Y190010D01*
X46795Y190635D01*
Y191885D01*
X47108Y192510D01*
X47420Y192822D01*
X48045Y193135D01*
X48670D01*
X49295Y192822D01*
X49608Y192510D01*
X49920Y191885D01*
X41795Y190172D02*
X43358Y193922D01*
X44920Y190172D01*
X42420Y191735D02*
X44295D01*
X48983D02*
X49920D01*
Y191422D01*
X49608Y190797D01*
X49295Y190485D01*
X48670Y190172D01*
X48045D01*
X47420Y190485D01*
X47108Y190797D01*
X46795Y191422D01*
Y192672D01*
X47108Y193297D01*
X47420Y193610D01*
X48045Y193922D01*
X48670D01*
X49295Y193610D01*
X49608Y193297D01*
X49920Y192672D01*
X41795Y190959D02*
X43358Y194709D01*
X44920Y190959D01*
X42420Y192522D02*
X44295D01*
X48983D02*
X49920D01*
Y192209D01*
X49608Y191585D01*
X49295Y191272D01*
X48670Y190959D01*
X48045D01*
X47420Y191272D01*
X47108Y191585D01*
X46795Y192209D01*
Y193459D01*
X47108Y194085D01*
X47420Y194397D01*
X48045Y194709D01*
X48670D01*
X49295Y194397D01*
X49608Y194085D01*
X49920Y193459D01*
X41795Y191550D02*
X43358Y195300D01*
X44920Y191550D01*
X42420Y193113D02*
X44295D01*
X48983D02*
X49920D01*
Y192800D01*
X49608Y192175D01*
X49295Y191863D01*
X48670Y191550D01*
X48045D01*
X47420Y191863D01*
X47108Y192175D01*
X46795Y192800D01*
Y194050D01*
X47108Y194675D01*
X47420Y194988D01*
X48045Y195300D01*
X48670D01*
X49295Y194988D01*
X49608Y194675D01*
X49920Y194050D01*
X41795Y192141D02*
X43358Y195891D01*
X44920Y192141D01*
X42420Y193703D02*
X44295D01*
X48983D02*
X49920D01*
Y193391D01*
X49608Y192766D01*
X49295Y192453D01*
X48670Y192141D01*
X48045D01*
X47420Y192453D01*
X47108Y192766D01*
X46795Y193391D01*
Y194641D01*
X47108Y195266D01*
X47420Y195578D01*
X48045Y195891D01*
X48670D01*
X49295Y195578D01*
X49608Y195266D01*
X49920Y194641D01*
X41795Y192928D02*
X43358Y196678D01*
X44920Y192928D01*
X42420Y194491D02*
X44295D01*
X48983D02*
X49920D01*
Y194178D01*
X49608Y193553D01*
X49295Y193241D01*
X48670Y192928D01*
X48045D01*
X47420Y193241D01*
X47108Y193553D01*
X46795Y194178D01*
Y195428D01*
X47108Y196053D01*
X47420Y196366D01*
X48045Y196678D01*
X48670D01*
X49295Y196366D01*
X49608Y196053D01*
X49920Y195428D01*
X41795Y193715D02*
X43358Y197465D01*
X44920Y193715D01*
X42420Y195278D02*
X44295D01*
X48983D02*
X49920D01*
Y194965D01*
X49608Y194341D01*
X49295Y194028D01*
X48670Y193715D01*
X48045D01*
X47420Y194028D01*
X47108Y194341D01*
X46795Y194965D01*
Y196215D01*
X47108Y196841D01*
X47420Y197153D01*
X48045Y197465D01*
X48670D01*
X49295Y197153D01*
X49608Y196841D01*
X49920Y196215D01*
X44194Y67066D02*
X45132D01*
Y66753D01*
X44820Y66128D01*
X44507Y65816D01*
X43882Y65503D01*
X43257D01*
X42632Y65816D01*
X42320Y66128D01*
X42007Y66753D01*
Y68003D01*
X42320Y68628D01*
X42632Y68941D01*
X43257Y69253D01*
X43882D01*
X44507Y68941D01*
X44820Y68628D01*
X45132Y68003D01*
X46140Y168063D02*
Y171813D01*
X49265D01*
X48640Y169938D02*
X46140D01*
Y168063D02*
X49265D01*
X48563Y147314D02*
X49500D01*
Y147002D01*
X49188Y146377D01*
X48875Y146064D01*
X48250Y145752D01*
X47625D01*
X47000Y146064D01*
X46688Y146377D01*
X46375Y147002D01*
Y148252D01*
X46688Y148877D01*
X47000Y149189D01*
X47625Y149502D01*
X48250D01*
X48875Y149189D01*
X49188Y148877D01*
X49500Y148252D01*
X47425Y177062D02*
X48988Y180812D01*
X50550Y177062D01*
X48050Y178624D02*
X49925D01*
X52425Y177062D02*
Y180812D01*
X54613D01*
X55238Y180500D01*
X55550Y179874D01*
X55238Y179250D01*
X54613Y178937D01*
X52425D01*
X54613D02*
X55550Y177062D01*
X48779Y190902D02*
Y194652D01*
X51904D01*
X51279Y192777D02*
X48779D01*
Y190902D02*
X51904D01*
X51991Y91337D02*
Y95087D01*
X55117D01*
X54491Y93213D02*
X51991D01*
Y91337D02*
X55117D01*
X51991Y101322D02*
Y105072D01*
X55117D01*
X54491Y103197D02*
X51991D01*
Y101322D02*
X55117D01*
X51991Y111306D02*
Y115056D01*
X55117D01*
X54491Y113181D02*
X51991D01*
Y111306D02*
X55117D01*
X54803Y67066D02*
X55741D01*
Y66753D01*
X55428Y66128D01*
X55115Y65816D01*
X54491Y65503D01*
X53865D01*
X53241Y65816D01*
X52928Y66128D01*
X52615Y66753D01*
Y68003D01*
X52928Y68628D01*
X53241Y68941D01*
X53865Y69253D01*
X54491D01*
X55115Y68941D01*
X55428Y68628D01*
X55741Y68003D01*
X52615Y71369D02*
Y75119D01*
X55741D01*
X55115Y73244D02*
X52615D01*
Y71369D02*
X55741D01*
X53379Y177836D02*
Y181586D01*
X56504D01*
X55879Y179711D02*
X53379D01*
Y177836D02*
X56504D01*
X53628Y139733D02*
Y143483D01*
X56754D01*
X56128Y141608D02*
X53628D01*
Y139733D02*
X56754D01*
X53628Y148469D02*
Y152219D01*
X56754D01*
X56128Y150344D02*
X53628D01*
Y148469D02*
X56754D01*
X53628Y157205D02*
Y160955D01*
X56754D01*
X56128Y159080D02*
X53628D01*
Y157205D02*
X56754D01*
X53628Y166066D02*
Y169816D01*
X56754D01*
X56128Y167941D02*
X53628D01*
Y166066D02*
X56754D01*
X53803Y52698D02*
Y56448D01*
X56928D01*
X56303Y54573D02*
X53803D01*
Y52698D02*
X56928D01*
X56424Y50527D02*
Y54277D01*
X59550D01*
X58924Y52402D02*
X56424D01*
Y50527D02*
X59550D01*
X57732Y67001D02*
Y70751D01*
X60857D01*
X60232Y68876D02*
X57732D01*
Y67001D02*
X60857D01*
X58731Y91462D02*
Y95212D01*
X61856D01*
X61231Y93337D02*
X58731D01*
Y91462D02*
X61856D01*
X58731Y101322D02*
Y105072D01*
X61856D01*
X61231Y103197D02*
X58731D01*
Y101322D02*
X61856D01*
X58803Y47898D02*
Y51648D01*
X61928D01*
X61303Y49774D02*
X58803D01*
Y47898D02*
X61928D01*
X58803Y190999D02*
Y194749D01*
X61928D01*
X61303Y192874D02*
X58803D01*
Y190999D02*
X61928D01*
X58856Y111306D02*
Y115056D01*
X61981D01*
X61356Y113181D02*
X58856D01*
Y111306D02*
X61981D01*
X59979Y129902D02*
Y133652D01*
X63104D01*
X62479Y131777D02*
X59979D01*
Y129902D02*
X63104D01*
X59993Y139733D02*
Y143483D01*
X63119D01*
X62493Y141608D02*
X59993D01*
Y139733D02*
X63119D01*
X59993Y148469D02*
Y152219D01*
X63119D01*
X62493Y150344D02*
X59993D01*
Y148469D02*
X63119D01*
X59993Y157205D02*
Y160955D01*
X63119D01*
X62493Y159080D02*
X59993D01*
Y157205D02*
X63119D01*
X59993Y166066D02*
Y169816D01*
X63119D01*
X62493Y167941D02*
X59993D01*
Y166066D02*
X63119D01*
X61722Y97698D02*
Y101448D01*
X64847D01*
X64222Y99573D02*
X61722D01*
Y97698D02*
X64847D01*
X64097Y102694D02*
Y106444D01*
X67222D01*
X66597Y104570D02*
X64097D01*
Y102694D02*
X67222D01*
X65029Y148420D02*
Y152170D01*
X68154D01*
X67529Y150295D02*
X65029D01*
Y148420D02*
X68154D01*
X65096Y138420D02*
Y142170D01*
X68221D01*
X67596Y140295D02*
X65096D01*
Y138420D02*
X68221D01*
X66344Y97702D02*
Y101452D01*
X69469D01*
X68844Y99578D02*
X66344D01*
Y97702D02*
X69469D01*
X67975Y166940D02*
Y170690D01*
X71100D01*
X70475Y168815D02*
X67975D01*
Y166940D02*
X71100D01*
X68715Y102694D02*
Y106444D01*
X71840D01*
X71215Y104570D02*
X68715D01*
Y102694D02*
X71840D01*
X68803Y190999D02*
Y194749D01*
X71928D01*
X71303Y192874D02*
X68803D01*
Y190999D02*
X71928D01*
X70181Y177062D02*
X71744Y180812D01*
X73306Y177062D01*
X70806Y178624D02*
X72681D01*
X75181Y177062D02*
Y180812D01*
X77369D01*
X77994Y180500D01*
X78306Y179874D01*
X77994Y179250D01*
X77369Y178937D01*
X75181D01*
X77369D02*
X78306Y177062D01*
X71336Y97827D02*
Y101577D01*
X74461D01*
X73836Y99702D02*
X71336D01*
Y97827D02*
X74461D01*
X71350Y168188D02*
Y171938D01*
X74476D01*
X73850Y170063D02*
X71350D01*
Y168188D02*
X74476D01*
X71424Y48655D02*
Y52405D01*
X74550D01*
X73924Y50530D02*
X71424D01*
Y48655D02*
X74550D01*
X73924Y75198D02*
Y78948D01*
X77050D01*
X76424Y77073D02*
X73924D01*
Y75198D02*
X77050D01*
X75811Y172928D02*
X77374Y176678D01*
X78936Y172928D01*
X76436Y174491D02*
X78311D01*
X82998D02*
X83936D01*
Y174178D01*
X83624Y173553D01*
X83311Y173241D01*
X82686Y172928D01*
X82061D01*
X81436Y173241D01*
X81124Y173553D01*
X80811Y174178D01*
Y175428D01*
X81124Y176053D01*
X81436Y176366D01*
X82061Y176678D01*
X82686D01*
X83311Y176366D01*
X83624Y176053D01*
X83936Y175428D01*
X75811Y173704D02*
X77374Y177454D01*
X78936Y173704D01*
X76436Y175266D02*
X78311D01*
X82998D02*
X83936D01*
Y174954D01*
X83624Y174329D01*
X83311Y174016D01*
X82686Y173704D01*
X82061D01*
X81436Y174016D01*
X81124Y174329D01*
X80811Y174954D01*
Y176204D01*
X81124Y176829D01*
X81436Y177141D01*
X82061Y177454D01*
X82686D01*
X83311Y177141D01*
X83624Y176829D01*
X83936Y176204D01*
X75811Y174503D02*
X77374Y178253D01*
X78936Y174503D01*
X76436Y176065D02*
X78311D01*
X82998D02*
X83936D01*
Y175753D01*
X83624Y175128D01*
X83311Y174815D01*
X82686Y174503D01*
X82061D01*
X81436Y174815D01*
X81124Y175128D01*
X80811Y175753D01*
Y177003D01*
X81124Y177628D01*
X81436Y177941D01*
X82061Y178253D01*
X82686D01*
X83311Y177941D01*
X83624Y177628D01*
X83936Y177003D01*
X75811Y175093D02*
X77374Y178843D01*
X78936Y175093D01*
X76436Y176656D02*
X78311D01*
X82998D02*
X83936D01*
Y176343D01*
X83624Y175719D01*
X83311Y175406D01*
X82686Y175093D01*
X82061D01*
X81436Y175406D01*
X81124Y175719D01*
X80811Y176343D01*
Y177593D01*
X81124Y178219D01*
X81436Y178531D01*
X82061Y178843D01*
X82686D01*
X83311Y178531D01*
X83624Y178219D01*
X83936Y177593D01*
X75811Y175684D02*
X77374Y179434D01*
X78936Y175684D01*
X76436Y177246D02*
X78311D01*
X82998D02*
X83936D01*
Y176934D01*
X83624Y176309D01*
X83311Y175996D01*
X82686Y175684D01*
X82061D01*
X81436Y175996D01*
X81124Y176309D01*
X80811Y176934D01*
Y178184D01*
X81124Y178809D01*
X81436Y179122D01*
X82061Y179434D01*
X82686D01*
X83311Y179122D01*
X83624Y178809D01*
X83936Y178184D01*
X75811Y176471D02*
X77374Y180221D01*
X78936Y176471D01*
X76436Y178034D02*
X78311D01*
X82998D02*
X83936D01*
Y177721D01*
X83624Y177096D01*
X83311Y176784D01*
X82686Y176471D01*
X82061D01*
X81436Y176784D01*
X81124Y177096D01*
X80811Y177721D01*
Y178971D01*
X81124Y179596D01*
X81436Y179909D01*
X82061Y180221D01*
X82686D01*
X83311Y179909D01*
X83624Y179596D01*
X83936Y178971D01*
X75811Y177259D02*
X77374Y181009D01*
X78936Y177259D01*
X76436Y178821D02*
X78311D01*
X82998D02*
X83936D01*
Y178509D01*
X83624Y177884D01*
X83311Y177571D01*
X82686Y177259D01*
X82061D01*
X81436Y177571D01*
X81124Y177884D01*
X80811Y178509D01*
Y179759D01*
X81124Y180384D01*
X81436Y180696D01*
X82061Y181009D01*
X82686D01*
X83311Y180696D01*
X83624Y180384D01*
X83936Y179759D01*
X75811Y189385D02*
X77374Y193135D01*
X78936Y189385D01*
X76436Y190947D02*
X78311D01*
X82998D02*
X83936D01*
Y190635D01*
X83624Y190010D01*
X83311Y189697D01*
X82686Y189385D01*
X82061D01*
X81436Y189697D01*
X81124Y190010D01*
X80811Y190635D01*
Y191885D01*
X81124Y192510D01*
X81436Y192822D01*
X82061Y193135D01*
X82686D01*
X83311Y192822D01*
X83624Y192510D01*
X83936Y191885D01*
X75811Y190172D02*
X77374Y193922D01*
X78936Y190172D01*
X76436Y191735D02*
X78311D01*
X82998D02*
X83936D01*
Y191422D01*
X83624Y190797D01*
X83311Y190485D01*
X82686Y190172D01*
X82061D01*
X81436Y190485D01*
X81124Y190797D01*
X80811Y191422D01*
Y192672D01*
X81124Y193297D01*
X81436Y193610D01*
X82061Y193922D01*
X82686D01*
X83311Y193610D01*
X83624Y193297D01*
X83936Y192672D01*
X75811Y190959D02*
X77374Y194709D01*
X78936Y190959D01*
X76436Y192522D02*
X78311D01*
X82998D02*
X83936D01*
Y192209D01*
X83624Y191585D01*
X83311Y191272D01*
X82686Y190959D01*
X82061D01*
X81436Y191272D01*
X81124Y191585D01*
X80811Y192209D01*
Y193459D01*
X81124Y194085D01*
X81436Y194397D01*
X82061Y194709D01*
X82686D01*
X83311Y194397D01*
X83624Y194085D01*
X83936Y193459D01*
X75811Y191550D02*
X77374Y195300D01*
X78936Y191550D01*
X76436Y193113D02*
X78311D01*
X82998D02*
X83936D01*
Y192800D01*
X83624Y192175D01*
X83311Y191863D01*
X82686Y191550D01*
X82061D01*
X81436Y191863D01*
X81124Y192175D01*
X80811Y192800D01*
Y194050D01*
X81124Y194675D01*
X81436Y194988D01*
X82061Y195300D01*
X82686D01*
X83311Y194988D01*
X83624Y194675D01*
X83936Y194050D01*
X75811Y192141D02*
X77374Y195891D01*
X78936Y192141D01*
X76436Y193703D02*
X78311D01*
X82998D02*
X83936D01*
Y193391D01*
X83624Y192766D01*
X83311Y192453D01*
X82686Y192141D01*
X82061D01*
X81436Y192453D01*
X81124Y192766D01*
X80811Y193391D01*
Y194641D01*
X81124Y195266D01*
X81436Y195578D01*
X82061Y195891D01*
X82686D01*
X83311Y195578D01*
X83624Y195266D01*
X83936Y194641D01*
X75811Y192928D02*
X77374Y196678D01*
X78936Y192928D01*
X76436Y194491D02*
X78311D01*
X82998D02*
X83936D01*
Y194178D01*
X83624Y193553D01*
X83311Y193241D01*
X82686Y192928D01*
X82061D01*
X81436Y193241D01*
X81124Y193553D01*
X80811Y194178D01*
Y195428D01*
X81124Y196053D01*
X81436Y196366D01*
X82061Y196678D01*
X82686D01*
X83311Y196366D01*
X83624Y196053D01*
X83936Y195428D01*
X75811Y193715D02*
X77374Y197465D01*
X78936Y193715D01*
X76436Y195278D02*
X78311D01*
X82998D02*
X83936D01*
Y194965D01*
X83624Y194341D01*
X83311Y194028D01*
X82686Y193715D01*
X82061D01*
X81436Y194028D01*
X81124Y194341D01*
X80811Y194965D01*
Y196215D01*
X81124Y196841D01*
X81436Y197153D01*
X82061Y197465D01*
X82686D01*
X83311Y197153D01*
X83624Y196841D01*
X83936Y196215D01*
X76578Y71369D02*
Y75119D01*
X79703D01*
X79078Y73244D02*
X76578D01*
Y71369D02*
X79703D01*
X76702Y58764D02*
Y62514D01*
X79828D01*
X79202Y60639D02*
X76702D01*
Y58764D02*
X79828D01*
X77529Y138420D02*
Y142170D01*
X80654D01*
X80029Y140295D02*
X77529D01*
Y138420D02*
X80654D01*
X77529Y148420D02*
Y152170D01*
X80654D01*
X80029Y150295D02*
X77529D01*
Y148420D02*
X80654D01*
X77576Y128404D02*
Y132154D01*
X80701D01*
X80076Y130279D02*
X77576D01*
Y128404D02*
X80701D01*
X78949Y91337D02*
Y95087D01*
X82074D01*
X81449Y93213D02*
X78949D01*
Y91337D02*
X82074D01*
X78949Y101446D02*
Y105196D01*
X82074D01*
X81449Y103322D02*
X78949D01*
Y101446D02*
X82074D01*
X82208Y110307D02*
Y114057D01*
X85333D01*
X84708Y112183D02*
X82208D01*
Y110307D02*
X85333D01*
X82208Y183196D02*
Y186946D01*
X85333D01*
X84708Y185071D02*
X82208D01*
Y183196D02*
X85333D01*
X86312Y91337D02*
Y95087D01*
X89437D01*
X88812Y93213D02*
X86312D01*
Y91337D02*
X89437D01*
X86312Y180696D02*
Y184446D01*
X89437D01*
X88812Y182572D02*
X86312D01*
Y180696D02*
X89437D01*
X90029Y190920D02*
Y194670D01*
X93154D01*
X92529Y192795D02*
X90029D01*
Y190920D02*
X93154D01*
X91917Y24415D02*
X93480Y28165D01*
X95042Y24415D01*
X92542Y25977D02*
X94417D01*
X96917Y25352D02*
X97230Y24727D01*
X97854Y24415D01*
X99104D01*
X99730Y24727D01*
X100042Y25352D01*
X99730Y25977D01*
X99104Y26290D01*
X97854D01*
X97230Y26602D01*
X96917Y27227D01*
X97230Y27852D01*
X97854Y28165D01*
X99104D01*
X99730Y27852D01*
X100042Y27227D01*
X91917Y26512D02*
X93480Y30262D01*
X95042Y26512D01*
X92542Y28075D02*
X94417D01*
X96917Y27450D02*
X97230Y26825D01*
X97854Y26512D01*
X99104D01*
X99730Y26825D01*
X100042Y27450D01*
X99730Y28075D01*
X99104Y28387D01*
X97854D01*
X97230Y28700D01*
X96917Y29325D01*
X97230Y29950D01*
X97854Y30262D01*
X99104D01*
X99730Y29950D01*
X100042Y29325D01*
X91917Y28512D02*
X93480Y32262D01*
X95042Y28512D01*
X92542Y30075D02*
X94417D01*
X96917Y29450D02*
X97230Y28825D01*
X97854Y28512D01*
X99104D01*
X99730Y28825D01*
X100042Y29450D01*
X99730Y30075D01*
X99104Y30387D01*
X97854D01*
X97230Y30700D01*
X96917Y31325D01*
X97230Y31950D01*
X97854Y32262D01*
X99104D01*
X99730Y31950D01*
X100042Y31325D01*
X91917Y30512D02*
X93480Y34262D01*
X95042Y30512D01*
X92542Y32075D02*
X94417D01*
X96917Y31450D02*
X97230Y30825D01*
X97854Y30512D01*
X99104D01*
X99730Y30825D01*
X100042Y31450D01*
X99730Y32075D01*
X99104Y32387D01*
X97854D01*
X97230Y32700D01*
X96917Y33325D01*
X97230Y33950D01*
X97854Y34262D01*
X99104D01*
X99730Y33950D01*
X100042Y33325D01*
X91917Y32512D02*
X93480Y36262D01*
X95042Y32512D01*
X92542Y34075D02*
X94417D01*
X96917Y33450D02*
X97230Y32825D01*
X97854Y32512D01*
X99104D01*
X99730Y32825D01*
X100042Y33450D01*
X99730Y34075D01*
X99104Y34387D01*
X97854D01*
X97230Y34700D01*
X96917Y35325D01*
X97230Y35950D01*
X97854Y36262D01*
X99104D01*
X99730Y35950D01*
X100042Y35325D01*
X91917Y34512D02*
X93480Y38262D01*
X95042Y34512D01*
X92542Y36075D02*
X94417D01*
X96917Y35450D02*
X97230Y34825D01*
X97854Y34512D01*
X99104D01*
X99730Y34825D01*
X100042Y35450D01*
X99730Y36075D01*
X99104Y36387D01*
X97854D01*
X97230Y36700D01*
X96917Y37325D01*
X97230Y37950D01*
X97854Y38262D01*
X99104D01*
X99730Y37950D01*
X100042Y37325D01*
X91917Y83205D02*
X93480Y86955D01*
X95042Y83205D01*
X92542Y84768D02*
X94417D01*
X96917Y84143D02*
X97230Y83518D01*
X97854Y83205D01*
X99104D01*
X99730Y83518D01*
X100042Y84143D01*
X99730Y84768D01*
X99104Y85080D01*
X97854D01*
X97230Y85393D01*
X96917Y86018D01*
X97230Y86643D01*
X97854Y86955D01*
X99104D01*
X99730Y86643D01*
X100042Y86018D01*
X91917Y85303D02*
X93480Y89053D01*
X95042Y85303D01*
X92542Y86865D02*
X94417D01*
X96917Y86241D02*
X97230Y85615D01*
X97854Y85303D01*
X99104D01*
X99730Y85615D01*
X100042Y86241D01*
X99730Y86865D01*
X99104Y87178D01*
X97854D01*
X97230Y87491D01*
X96917Y88115D01*
X97230Y88741D01*
X97854Y89053D01*
X99104D01*
X99730Y88741D01*
X100042Y88115D01*
X91917Y87303D02*
X93480Y91053D01*
X95042Y87303D01*
X92542Y88865D02*
X94417D01*
X96917Y88241D02*
X97230Y87615D01*
X97854Y87303D01*
X99104D01*
X99730Y87615D01*
X100042Y88241D01*
X99730Y88865D01*
X99104Y89178D01*
X97854D01*
X97230Y89491D01*
X96917Y90115D01*
X97230Y90741D01*
X97854Y91053D01*
X99104D01*
X99730Y90741D01*
X100042Y90115D01*
X91917Y89303D02*
X93480Y93053D01*
X95042Y89303D01*
X92542Y90865D02*
X94417D01*
X96917Y90241D02*
X97230Y89615D01*
X97854Y89303D01*
X99104D01*
X99730Y89615D01*
X100042Y90241D01*
X99730Y90865D01*
X99104Y91178D01*
X97854D01*
X97230Y91491D01*
X96917Y92115D01*
X97230Y92741D01*
X97854Y93053D01*
X99104D01*
X99730Y92741D01*
X100042Y92115D01*
X91917Y91303D02*
X93480Y95053D01*
X95042Y91303D01*
X92542Y92865D02*
X94417D01*
X96917Y92241D02*
X97230Y91615D01*
X97854Y91303D01*
X99104D01*
X99730Y91615D01*
X100042Y92241D01*
X99730Y92865D01*
X99104Y93178D01*
X97854D01*
X97230Y93491D01*
X96917Y94115D01*
X97230Y94741D01*
X97854Y95053D01*
X99104D01*
X99730Y94741D01*
X100042Y94115D01*
X91917Y93303D02*
X93480Y97053D01*
X95042Y93303D01*
X92542Y94865D02*
X94417D01*
X96917Y94241D02*
X97230Y93615D01*
X97854Y93303D01*
X99104D01*
X99730Y93615D01*
X100042Y94241D01*
X99730Y94865D01*
X99104Y95178D01*
X97854D01*
X97230Y95491D01*
X96917Y96115D01*
X97230Y96741D01*
X97854Y97053D01*
X99104D01*
X99730Y96741D01*
X100042Y96115D01*
X91917Y95303D02*
X93480Y99053D01*
X95042Y95303D01*
X92542Y96865D02*
X94417D01*
X96917Y96241D02*
X97230Y95615D01*
X97854Y95303D01*
X99104D01*
X99730Y95615D01*
X100042Y96241D01*
X99730Y96865D01*
X99104Y97178D01*
X97854D01*
X97230Y97491D01*
X96917Y98115D01*
X97230Y98741D01*
X97854Y99053D01*
X99104D01*
X99730Y98741D01*
X100042Y98115D01*
X91917Y97253D02*
X93480Y101003D01*
X95042Y97253D01*
X92542Y98816D02*
X94417D01*
X96917Y98191D02*
X97230Y97566D01*
X97854Y97253D01*
X99104D01*
X99730Y97566D01*
X100042Y98191D01*
X99730Y98816D01*
X99104Y99128D01*
X97854D01*
X97230Y99441D01*
X96917Y100066D01*
X97230Y100691D01*
X97854Y101003D01*
X99104D01*
X99730Y100691D01*
X100042Y100066D01*
X91917Y99253D02*
X93480Y103003D01*
X95042Y99253D01*
X92542Y100816D02*
X94417D01*
X96917Y100191D02*
X97230Y99566D01*
X97854Y99253D01*
X99104D01*
X99730Y99566D01*
X100042Y100191D01*
X99730Y100816D01*
X99104Y101128D01*
X97854D01*
X97230Y101441D01*
X96917Y102066D01*
X97230Y102691D01*
X97854Y103003D01*
X99104D01*
X99730Y102691D01*
X100042Y102066D01*
X91917Y101253D02*
X93480Y105003D01*
X95042Y101253D01*
X92542Y102816D02*
X94417D01*
X96917Y102191D02*
X97230Y101566D01*
X97854Y101253D01*
X99104D01*
X99730Y101566D01*
X100042Y102191D01*
X99730Y102816D01*
X99104Y103128D01*
X97854D01*
X97230Y103441D01*
X96917Y104066D01*
X97230Y104691D01*
X97854Y105003D01*
X99104D01*
X99730Y104691D01*
X100042Y104066D01*
X91917Y103253D02*
X93480Y107003D01*
X95042Y103253D01*
X92542Y104816D02*
X94417D01*
X96917Y104191D02*
X97230Y103566D01*
X97854Y103253D01*
X99104D01*
X99730Y103566D01*
X100042Y104191D01*
X99730Y104816D01*
X99104Y105128D01*
X97854D01*
X97230Y105441D01*
X96917Y106066D01*
X97230Y106691D01*
X97854Y107003D01*
X99104D01*
X99730Y106691D01*
X100042Y106066D01*
X91917Y105253D02*
X93480Y109003D01*
X95042Y105253D01*
X92542Y106816D02*
X94417D01*
X96917Y106191D02*
X97230Y105566D01*
X97854Y105253D01*
X99104D01*
X99730Y105566D01*
X100042Y106191D01*
X99730Y106816D01*
X99104Y107128D01*
X97854D01*
X97230Y107441D01*
X96917Y108066D01*
X97230Y108691D01*
X97854Y109003D01*
X99104D01*
X99730Y108691D01*
X100042Y108066D01*
X91917Y107253D02*
X93480Y111003D01*
X95042Y107253D01*
X92542Y108816D02*
X94417D01*
X96917Y108191D02*
X97230Y107566D01*
X97854Y107253D01*
X99104D01*
X99730Y107566D01*
X100042Y108191D01*
X99730Y108816D01*
X99104Y109128D01*
X97854D01*
X97230Y109441D01*
X96917Y110066D01*
X97230Y110691D01*
X97854Y111003D01*
X99104D01*
X99730Y110691D01*
X100042Y110066D01*
X91917Y109351D02*
X93480Y113101D01*
X95042Y109351D01*
X92542Y110913D02*
X94417D01*
X96917Y110289D02*
X97230Y109663D01*
X97854Y109351D01*
X99104D01*
X99730Y109663D01*
X100042Y110289D01*
X99730Y110913D01*
X99104Y111226D01*
X97854D01*
X97230Y111539D01*
X96917Y112163D01*
X97230Y112789D01*
X97854Y113101D01*
X99104D01*
X99730Y112789D01*
X100042Y112163D01*
X91917Y111351D02*
X93480Y115101D01*
X95042Y111351D01*
X92542Y112913D02*
X94417D01*
X96917Y112289D02*
X97230Y111663D01*
X97854Y111351D01*
X99104D01*
X99730Y111663D01*
X100042Y112289D01*
X99730Y112913D01*
X99104Y113226D01*
X97854D01*
X97230Y113539D01*
X96917Y114163D01*
X97230Y114789D01*
X97854Y115101D01*
X99104D01*
X99730Y114789D01*
X100042Y114163D01*
X91917Y113351D02*
X93480Y117101D01*
X95042Y113351D01*
X92542Y114913D02*
X94417D01*
X96917Y114289D02*
X97230Y113663D01*
X97854Y113351D01*
X99104D01*
X99730Y113663D01*
X100042Y114289D01*
X99730Y114913D01*
X99104Y115226D01*
X97854D01*
X97230Y115539D01*
X96917Y116163D01*
X97230Y116789D01*
X97854Y117101D01*
X99104D01*
X99730Y116789D01*
X100042Y116163D01*
X91917Y115351D02*
X93480Y119101D01*
X95042Y115351D01*
X92542Y116913D02*
X94417D01*
X96917Y116289D02*
X97230Y115663D01*
X97854Y115351D01*
X99104D01*
X99730Y115663D01*
X100042Y116289D01*
X99730Y116913D01*
X99104Y117226D01*
X97854D01*
X97230Y117539D01*
X96917Y118163D01*
X97230Y118789D01*
X97854Y119101D01*
X99104D01*
X99730Y118789D01*
X100042Y118163D01*
X91917Y117351D02*
X93480Y121101D01*
X95042Y117351D01*
X92542Y118913D02*
X94417D01*
X96917Y118289D02*
X97230Y117663D01*
X97854Y117351D01*
X99104D01*
X99730Y117663D01*
X100042Y118289D01*
X99730Y118913D01*
X99104Y119226D01*
X97854D01*
X97230Y119539D01*
X96917Y120163D01*
X97230Y120789D01*
X97854Y121101D01*
X99104D01*
X99730Y120789D01*
X100042Y120163D01*
X91919Y22198D02*
X93481Y25948D01*
X95044Y22198D01*
X92544Y23760D02*
X94419D01*
X96919Y23135D02*
X97231Y22510D01*
X97856Y22198D01*
X99106D01*
X99731Y22510D01*
X100044Y23135D01*
X99731Y23760D01*
X99106Y24073D01*
X97856D01*
X97231Y24385D01*
X96919Y25010D01*
X97231Y25635D01*
X97856Y25948D01*
X99106D01*
X99731Y25635D01*
X100044Y25010D01*
X100029Y190920D02*
Y194670D01*
X103154D01*
X102529Y192795D02*
X100029D01*
Y190920D02*
X103154D01*
D02*
D78*
X24284Y185589D03*
X26255Y16260D03*
Y18477D03*
Y20575D03*
Y22575D03*
Y24575D03*
Y26575D03*
Y28575D03*
Y77431D03*
Y79529D03*
Y81529D03*
Y83529D03*
Y85529D03*
Y87529D03*
Y89529D03*
Y91480D03*
Y93480D03*
Y95480D03*
Y97480D03*
Y99480D03*
Y101480D03*
Y103577D03*
Y105577D03*
Y107577D03*
Y109577D03*
Y111577D03*
X31647Y139814D03*
X31757Y85899D03*
X31795Y166991D03*
Y167766D03*
Y168565D03*
Y169156D03*
Y169746D03*
Y170534D03*
Y171321D03*
Y183447D03*
Y184235D03*
Y185022D03*
Y185613D03*
Y186203D03*
Y186991D03*
Y187778D03*
X32007Y59566D03*
X36140Y162126D03*
X36375Y139814D03*
X37425Y171124D03*
X38779Y184965D03*
X41991Y85400D03*
Y95384D03*
Y105369D03*
X42615Y59566D03*
Y65431D03*
X43379Y171899D03*
X43628Y133795D03*
Y142531D03*
Y151268D03*
Y160129D03*
X43803Y46760D03*
X46424Y44589D03*
X47732Y61063D03*
X48731Y85525D03*
Y95384D03*
X48803Y41961D03*
Y185061D03*
X48856Y105369D03*
X49979Y123964D03*
X49993Y133795D03*
Y142531D03*
Y151268D03*
Y160129D03*
X51722Y91760D03*
X54097Y96757D03*
X55029Y142483D03*
X55096Y132483D03*
X56344Y91765D03*
X57975Y161002D03*
X58715Y96757D03*
X58803Y185061D03*
X60181Y171124D03*
X61336Y91890D03*
X61350Y162250D03*
X61424Y42717D03*
X63924Y69260D03*
X65811Y166991D03*
Y167766D03*
Y168565D03*
Y169156D03*
Y169746D03*
Y170534D03*
Y171321D03*
Y183447D03*
Y184235D03*
Y185022D03*
Y185613D03*
Y186203D03*
Y186991D03*
Y187778D03*
X66578Y65431D03*
X66702Y52826D03*
X67529Y132483D03*
Y142483D03*
X67576Y122467D03*
X68949Y85400D03*
Y95509D03*
X72208Y104370D03*
Y177259D03*
X76312Y85400D03*
Y174759D03*
X80029Y184983D03*
X81917Y18477D03*
Y20575D03*
Y22575D03*
Y24575D03*
Y26575D03*
Y28575D03*
Y77268D03*
Y79365D03*
Y81365D03*
Y83365D03*
Y85365D03*
Y87365D03*
Y89365D03*
Y91316D03*
Y93316D03*
Y95316D03*
Y97316D03*
Y99316D03*
Y101316D03*
Y103413D03*
Y105413D03*
Y107413D03*
Y109413D03*
Y111413D03*
X81919Y16260D03*
X90029Y184983D03*
X0Y0D02*
M02*
