G04 DesignSpark PCB PRO Gerber Version 10.0 Build 5299*
G04 #@! TF.Part,Single*
G04 #@! TF.FileFunction,Copper,L2,Bot*
G04 #@! TF.FilePolarity,Positive*
%FSLAX35Y35*%
%MOIN*%
G04 #@! TA.AperFunction,ComponentPad*
%ADD20O,0.03937X0.08268*%
G04 #@! TD.AperFunction*
%ADD13C,0.00500*%
%ADD12C,0.00602*%
%ADD10C,0.00787*%
%ADD15C,0.01500*%
G04 #@! TA.AperFunction,ViaPad*
%ADD16C,0.02362*%
G04 #@! TD.AperFunction*
%ADD11C,0.02500*%
G04 #@! TA.AperFunction,ViaPad*
%ADD17C,0.02677*%
%ADD14C,0.03200*%
G04 #@! TA.AperFunction,SMDPad,CuDef*
%AMT18*0 Offset Rectangle Pad at angle 180*4,1,4,0.03500,0.08311,-0.03500,0.08311,-0.03500,-0.03500,0.03500,-0.03500,0.03500,0.08311,0*%
%ADD18T18*%
G04 #@! TD.AperFunction*
X0Y0D02*
D02*
D10*
X5174Y15510D02*
Y28961D01*
X26530D01*
G75*
G03*
X27529Y29959I0J998D01*
G01*
Y76136D01*
G75*
G03*
X26530Y77135I-998J0D01*
G01*
X5174D01*
Y111829D01*
X26530D01*
G75*
G03*
X27529Y112828I0J998D01*
G01*
Y162126D01*
G75*
G03*
X26530Y163124I-998J0D01*
G01*
X25532D01*
Y173091D01*
G75*
G03*
X24533Y174090I-998J0D01*
G01*
X5174D01*
Y190706D01*
X103598D01*
Y174089D01*
X83690D01*
G75*
G03*
X82691Y173090I0J-999D01*
G01*
Y163124D01*
X81693D01*
G75*
G03*
X80695Y162126I0J-998D01*
G01*
Y112828D01*
G75*
G03*
X81693Y111830I998J0D01*
G01*
X103600D01*
Y77136D01*
X81693D01*
G75*
G03*
X80695Y76138I0J-998D01*
G01*
Y29959D01*
G75*
G03*
X81693Y28961I998J0D01*
G01*
X103600D01*
Y15510D01*
X5174D01*
X39246Y110860D02*
X38372D01*
Y116351D01*
X39246D01*
Y143433D01*
X29316D01*
Y112828D01*
G75*
G02*
X29276Y112356I-2785J0D01*
G01*
Y76607D01*
G75*
G02*
X29316Y76136I-2745J-471D01*
G01*
Y57819D01*
X43863D01*
X44612Y58567D01*
Y60939D01*
X43863Y61687D01*
X40743D01*
X39246Y63185D01*
Y110860D01*
G36*
X39246Y110860D02*
X38372D01*
Y116351D01*
X39246D01*
Y143433D01*
X29316D01*
Y112828D01*
G75*
G02*
X29276Y112356I-2785J0D01*
G01*
Y76607D01*
G75*
G02*
X29316Y76136I-2745J-471D01*
G01*
Y57819D01*
X43863D01*
X44612Y58567D01*
Y60939D01*
X43863Y61687D01*
X40743D01*
X39246Y63185D01*
Y110860D01*
G37*
D02*
D11*
X42615Y59566D02*
X32007D01*
X59512Y22750D02*
Y35058D01*
X62553Y38100D01*
X67466D01*
X72208Y42842D01*
Y104370D01*
X59512Y34958D02*
G75*
G02*
X57262Y31061I-8398J2250D01*
G01*
X61762D01*
G75*
G02*
X59512Y34958I6147J6147D01*
G01*
G36*
X59512Y34958D02*
G75*
G02*
X57262Y31061I-8398J2250D01*
G01*
X61762D01*
G75*
G02*
X59512Y34958I6147J6147D01*
G01*
G37*
X70312Y22750D02*
Y35479D01*
X76312Y41479D01*
Y43850D01*
X70312Y34958D02*
G75*
G02*
X68062Y31061I-8398J2250D01*
G01*
X72562D01*
G75*
G02*
X70312Y34958I6147J6147D01*
G01*
G36*
X70312Y34958D02*
G75*
G02*
X68062Y31061I-8398J2250D01*
G01*
X72562D01*
G75*
G02*
X70312Y34958I6147J6147D01*
G01*
G37*
X72208Y104370D02*
Y177259D01*
X76312Y85400D02*
Y43850D01*
Y174759D02*
Y85400D01*
D02*
D12*
X37912Y22750D02*
Y37851D01*
X39659Y39598D01*
X49979D01*
X58730Y48349D01*
Y86370D01*
X58715Y86385D01*
Y96757D01*
X37912Y36602D02*
G75*
G02*
X34713Y31061I-11939J3199D01*
G01*
X41111D01*
G75*
G02*
X37912Y36602I8739J8739D01*
G01*
G36*
X37912Y36602D02*
G75*
G02*
X34713Y31061I-11939J3199D01*
G01*
X41111D01*
G75*
G02*
X37912Y36602I8739J8739D01*
G01*
G37*
X43379Y171899D02*
X52614D01*
X53737Y170776D01*
Y162539D01*
X55235Y161041D01*
X57975D01*
Y161002D01*
X45270Y48227D02*
G75*
G03*
X44805Y46492I3006J-1735D01*
G01*
G75*
G03*
X43535Y47762I-1002J269D01*
G01*
G75*
G03*
X45270Y48227I0J3471D01*
G01*
G36*
X45270Y48227D02*
G75*
G03*
X44805Y46492I3006J-1735D01*
G01*
G75*
G03*
X43535Y47762I-1002J269D01*
G01*
G75*
G03*
X45270Y48227I0J3471D01*
G01*
G37*
X45454Y171899D02*
G75*
G03*
X43897Y171000I898J-3353D01*
G01*
G75*
G03*
Y172797I-519J898D01*
G01*
G75*
G03*
X45454Y171899I2455J2455D01*
G01*
G36*
X45454Y171899D02*
G75*
G03*
X43897Y171000I898J-3353D01*
G01*
G75*
G03*
Y172797I-519J898D01*
G01*
G75*
G03*
X45454Y171899I2455J2455D01*
G01*
G37*
X47891Y46056D02*
G75*
G03*
X47426Y44321I3006J-1735D01*
G01*
G75*
G03*
X46156Y45591I-1002J269D01*
G01*
G75*
G03*
X47891Y46056I0J3471D01*
G01*
G36*
X47891Y46056D02*
G75*
G03*
X47426Y44321I3006J-1735D01*
G01*
G75*
G03*
X46156Y45591I-1002J269D01*
G01*
G75*
G03*
X47891Y46056I0J3471D01*
G01*
G37*
X48712Y36602D02*
G75*
G02*
X45513Y31061I-11939J3199D01*
G01*
X51911D01*
G75*
G02*
X48712Y36602I8739J8739D01*
G01*
G36*
X48712Y36602D02*
G75*
G02*
X45513Y31061I-11939J3199D01*
G01*
X51911D01*
G75*
G02*
X48712Y36602I8739J8739D01*
G01*
G37*
X50293Y43406D02*
G75*
G03*
X49801Y41677I2979J-1782D01*
G01*
G75*
G03*
X48550Y42967I-998J284D01*
G01*
G75*
G03*
X50293Y43406I53J3471D01*
G01*
G36*
X50293Y43406D02*
G75*
G03*
X49801Y41677I2979J-1782D01*
G01*
G75*
G03*
X48550Y42967I-998J284D01*
G01*
G75*
G03*
X50293Y43406I53J3471D01*
G01*
G37*
X51722Y89685D02*
G75*
G03*
X50824Y91242I-3353J-898D01*
G01*
G75*
G03*
X52620I898J519D01*
G01*
G75*
G03*
X51722Y89685I2455J-2455D01*
G01*
G36*
X51722Y89685D02*
G75*
G03*
X50824Y91242I-3353J-898D01*
G01*
G75*
G03*
X52620I898J519D01*
G01*
G75*
G03*
X51722Y89685I2455J-2455D01*
G01*
G37*
Y91760D02*
Y54679D01*
X43803Y46760D01*
X54097Y94682D02*
G75*
G03*
X53199Y96239I-3353J-898D01*
G01*
G75*
G03*
X54996I898J519D01*
G01*
G75*
G03*
X54097Y94682I2455J-2455D01*
G01*
G36*
X54097Y94682D02*
G75*
G03*
X53199Y96239I-3353J-898D01*
G01*
G75*
G03*
X54996I898J519D01*
G01*
G75*
G03*
X54097Y94682I2455J-2455D01*
G01*
G37*
Y96757D02*
Y52262D01*
X46424Y44589D01*
X55901Y161041D02*
G75*
G03*
X57474Y161910I-836J3370D01*
G01*
G75*
G03*
X57440Y160114I502J-908D01*
G01*
G75*
G03*
X55901Y161041I-2500J-2409D01*
G01*
G36*
X55901Y161041D02*
G75*
G03*
X57474Y161910I-836J3370D01*
G01*
G75*
G03*
X57440Y160114I502J-908D01*
G01*
G75*
G03*
X55901Y161041I-2500J-2409D01*
G01*
G37*
X56344Y89690D02*
G75*
G03*
X55445Y91246I-3353J-898D01*
G01*
G75*
G03*
X57242I898J519D01*
G01*
G75*
G03*
X56344Y89690I2455J-2455D01*
G01*
G36*
X56344Y89690D02*
G75*
G03*
X55445Y91246I-3353J-898D01*
G01*
G75*
G03*
X57242I898J519D01*
G01*
G75*
G03*
X56344Y89690I2455J-2455D01*
G01*
G37*
Y91765D02*
Y49457D01*
X48848Y41961D01*
X48803D01*
X58715Y94682D02*
G75*
G03*
X57817Y96239I-3353J-898D01*
G01*
G75*
G03*
X59613I898J519D01*
G01*
G75*
G03*
X58715Y94682I2455J-2455D01*
G01*
G36*
X58715Y94682D02*
G75*
G03*
X57817Y96239I-3353J-898D01*
G01*
G75*
G03*
X59613I898J519D01*
G01*
G75*
G03*
X58715Y94682I2455J-2455D01*
G01*
G37*
X61336Y89815D02*
G75*
G03*
X60437Y91371I-3353J-898D01*
G01*
G75*
G03*
X62234I898J519D01*
G01*
G75*
G03*
X61336Y89815I2455J-2455D01*
G01*
G36*
X61336Y89815D02*
G75*
G03*
X60437Y91371I-3353J-898D01*
G01*
G75*
G03*
X62234I898J519D01*
G01*
G75*
G03*
X61336Y89815I2455J-2455D01*
G01*
G37*
Y91890D02*
Y47586D01*
X51726Y37976D01*
X49835D01*
X48712Y36853D01*
Y22750D01*
X62891Y44184D02*
G75*
G03*
X62426Y42449I3006J-1735D01*
G01*
G75*
G03*
X61156Y43719I-1002J269D01*
G01*
G75*
G03*
X62891Y44184I0J3471D01*
G01*
G36*
X62891Y44184D02*
G75*
G03*
X62426Y42449I3006J-1735D01*
G01*
G75*
G03*
X61156Y43719I-1002J269D01*
G01*
G75*
G03*
X62891Y44184I0J3471D01*
G01*
G37*
X63924Y67185D02*
G75*
G03*
X63026Y68742I-3353J-898D01*
G01*
G75*
G03*
X64823I898J519D01*
G01*
G75*
G03*
X63924Y67185I2455J-2455D01*
G01*
G36*
X63924Y67185D02*
G75*
G03*
X63026Y68742I-3353J-898D01*
G01*
G75*
G03*
X64823I898J519D01*
G01*
G75*
G03*
X63924Y67185I2455J-2455D01*
G01*
G37*
Y69260D02*
Y45217D01*
X61424Y42717D01*
D02*
D13*
X8059Y189062D02*
Y175733D01*
X24533D01*
G75*
G02*
X27176Y173091I0J-2642D01*
G01*
Y164688D01*
G75*
G02*
X29172Y162126I-645J-2562D01*
G01*
Y144672D01*
G75*
G02*
X29316Y144680I143J-1238D01*
G01*
X39246D01*
G75*
G02*
X40492Y143433I0J-1246D01*
G01*
Y116351D01*
G75*
G02*
X39619Y115162I-1246J0D01*
G01*
Y112049D01*
G75*
G02*
X40492Y110860I-373J-1189D01*
G01*
Y63701D01*
X41259Y62934D01*
X43863D01*
G75*
G02*
X44745Y62569I0J-1246D01*
G01*
X45493Y61820D01*
G75*
G02*
X45859Y60939I-881J-881D01*
G01*
Y58567D01*
G75*
G02*
X45493Y57686I-1246J0D01*
G01*
X44745Y56937D01*
G75*
G02*
X43863Y56572I-881J881D01*
G01*
X29316D01*
G75*
G02*
X29172Y56580I0J1246D01*
G01*
Y32859D01*
X34770D01*
G75*
G03*
X36758Y36757I-8797J6942D01*
G01*
Y37851D01*
G75*
G02*
X37098Y38668I1154J0D01*
G01*
X38842Y40413D01*
G75*
G02*
X39659Y40752I817J-814D01*
G01*
X46976D01*
G75*
G02*
X46659Y42411I1827J1209D01*
G01*
G75*
G02*
X44233Y44589I-235J2178D01*
G01*
G75*
G02*
Y44612I2179J11D01*
G01*
G75*
G02*
X41612Y46760I-430J2148D01*
G01*
G75*
G02*
X43919Y48948I2191J0D01*
G01*
G75*
G03*
X44573Y49162I-386J2289D01*
G01*
X50569Y55157D01*
Y89517D01*
G75*
G03*
X50257Y90131I-2202J-730D01*
G01*
G75*
G02*
X52944Y93579I1465J1629D01*
G01*
Y94514D01*
G75*
G03*
X52632Y95128I-2202J-730D01*
G01*
G75*
G02*
X51906Y96757I1465J1629D01*
G01*
G75*
G02*
X56288I2191J0D01*
G01*
G75*
G02*
X55561Y95127I-2191J0D01*
G01*
G75*
G03*
X55251Y94515I1886J-1341D01*
G01*
Y93664D01*
G75*
G02*
X57561Y93586I1093J-1899D01*
G01*
Y94514D01*
G75*
G03*
X57250Y95128I-2202J-730D01*
G01*
G75*
G02*
X56524Y96757I1465J1629D01*
G01*
G75*
G02*
X60906I2191J0D01*
G01*
G75*
G02*
X60179Y95127I-2191J0D01*
G01*
G75*
G03*
X59869Y94515I1886J-1341D01*
G01*
Y93517D01*
G75*
G02*
X63527Y91890I1467J-1627D01*
G01*
G75*
G02*
X62800Y90260I-2191J0D01*
G01*
G75*
G03*
X62489Y89648I1886J-1341D01*
G01*
Y70916D01*
G75*
G02*
X65388Y67630I1435J-1655D01*
G01*
G75*
G03*
X65078Y67019I1886J-1341D01*
G01*
Y45217D01*
G75*
G02*
X64739Y44400I-1154J0D01*
G01*
X63826Y43487D01*
G75*
G03*
X63612Y42833I2075J-1040D01*
G01*
G75*
G02*
X63615Y42717I-2185J-117D01*
G01*
G75*
G02*
X59233I-2191J0D01*
G01*
G75*
G02*
X61541Y44905I2191J0D01*
G01*
G75*
G03*
X62194Y45119I-386J2289D01*
G01*
X62771Y45695D01*
Y67017D01*
G75*
G03*
X62489Y67588I-2202J-730D01*
G01*
Y47586D01*
G75*
G02*
X62150Y46769I-1154J0D01*
G01*
X52543Y37162D01*
G75*
G02*
X51726Y36822I-817J814D01*
G01*
X50313D01*
X49953Y36463D01*
G75*
G03*
X51853Y32859I10698J3339D01*
G01*
X56067D01*
G75*
G03*
X57423Y35300I-4953J4349D01*
G01*
G75*
G02*
X58026Y36545I2089J-242D01*
G01*
X61066Y39586D01*
G75*
G02*
X62553Y40202I1487J-1486D01*
G01*
X66595D01*
X70106Y43713D01*
Y103754D01*
G75*
G02*
Y104987I2102J617D01*
G01*
Y176642D01*
G75*
G02*
X70017Y177259I2102J617D01*
G01*
G75*
G02*
X74399I2191J0D01*
G01*
G75*
G02*
X74311Y176642I-2191J0D01*
G01*
Y175650D01*
G75*
G02*
X78415Y174143I2002J-891D01*
G01*
Y86017D01*
G75*
G02*
Y84783I-2102J-617D01*
G01*
Y41479D01*
G75*
G02*
X77798Y39992I-2102J0D01*
G01*
X72583Y34777D01*
G75*
G03*
X73757Y32859I6127J2431D01*
G01*
X79051D01*
Y76138D01*
G75*
G02*
X79072Y76472I2644J0D01*
G01*
Y112494D01*
G75*
G02*
X79051Y112828I2622J335D01*
G01*
Y162126D01*
G75*
G02*
X81047Y164688I2642J0D01*
G01*
Y173090D01*
G75*
G02*
X83690Y175733I2643J0D01*
G01*
X100913D01*
Y189062D01*
X68761D01*
G75*
G02*
X69029Y187777I-2951J-1285D01*
G01*
Y183446D01*
G75*
G02*
X62592I-3219J0D01*
G01*
Y187777D01*
G75*
G02*
X62860Y189062I3219J0D01*
G01*
X34746D01*
G75*
G02*
X35013Y187777I-2951J-1285D01*
G01*
Y183446D01*
G75*
G02*
X28576I-3219J0D01*
G01*
Y187777D01*
G75*
G02*
X28844Y189062I3219J0D01*
G01*
X8059D01*
X35293Y171124D02*
G75*
G02*
X39557I2132J0D01*
G01*
G75*
G02*
X35293I-2132J0D01*
G01*
X56939Y162933D02*
G75*
G02*
X60166Y161002I1037J-1930D01*
G01*
G75*
G02*
X56870Y159111I-2191J0D01*
G01*
G75*
G02*
X56821Y159140I565J998D01*
G01*
G75*
G02*
X56319Y159568I1155J1863D01*
G01*
G75*
G03*
X55720Y159887I-1378J-1863D01*
G01*
X55235D01*
G75*
G02*
X54418Y160227I0J1154D01*
G01*
X52923Y161722D01*
G75*
G02*
X52584Y162539I814J817D01*
G01*
Y170298D01*
X52136Y170745D01*
X45620D01*
G75*
G03*
X45009Y170435I729J-2196D01*
G01*
G75*
G02*
X41188Y171899I-1630J1464D01*
G01*
G75*
G02*
X45009Y173363I2191J0D01*
G01*
G75*
G03*
X45620Y173052I1341J1886D01*
G01*
X52614D01*
G75*
G02*
X53431Y172713I0J-1154D01*
G01*
X54552Y171593D01*
G75*
G02*
X54891Y170776I-814J-817D01*
G01*
Y163017D01*
X55713Y162194D01*
X55745D01*
G75*
G03*
X56373Y162497I-680J2215D01*
G01*
G75*
G02*
X56893Y162907I1603J-1494D01*
G01*
G75*
G02*
X56939Y162933I578J-994D01*
G01*
X58049Y171124D02*
G75*
G02*
X62313I2132J0D01*
G01*
G75*
G02*
X58049I-2132J0D01*
G01*
X62592Y171320D02*
G75*
G02*
X69029I3219J0D01*
G01*
Y166989D01*
G75*
G02*
X62592I-3219J0D01*
G01*
Y171320D01*
X28576D02*
G75*
G02*
X35013I3219J0D01*
G01*
Y166989D01*
G75*
G02*
X28576I-3219J0D01*
G01*
Y171320D01*
X27176Y171124D02*
G36*
X27176Y171124D02*
Y164688D01*
G75*
G02*
X29172Y162126I-645J-2562D01*
G01*
Y144672D01*
G75*
G02*
X29316Y144680I140J-1185D01*
G01*
X39246D01*
G75*
G02*
X40492Y143434I0J-1246D01*
G01*
Y143433D01*
Y116351D01*
Y116351D01*
G75*
G02*
X39619Y115162I-1246J0D01*
G01*
Y112049D01*
G75*
G02*
X40492Y110860I-372J-1189D01*
G01*
Y110860D01*
Y63701D01*
X41259Y62934D01*
X43863D01*
G75*
G02*
X44745Y62569I0J-1245D01*
G01*
X45493Y61820D01*
G75*
G02*
X45859Y60939I-880J-881D01*
G01*
Y60939D01*
Y58567D01*
Y58567D01*
G75*
G02*
X45493Y57686I-1245J0D01*
G01*
X44745Y56937D01*
G75*
G02*
X43863Y56572I-881J880D01*
G01*
X29316D01*
G75*
G02*
X29172Y56580I-4J1193D01*
G01*
Y33109D01*
X34962D01*
G75*
G03*
X36758Y36757I-8999J6696D01*
G01*
Y37851D01*
G75*
G02*
X37098Y38668I1154J0D01*
G01*
X38842Y40413D01*
G75*
G02*
X39659Y40752I817J-814D01*
G01*
X46976D01*
G75*
G02*
X46612Y41961I1826J1209D01*
G01*
G75*
G02*
X46659Y42411I2191J0D01*
G01*
G75*
G02*
X44233Y44589I-234J2179D01*
G01*
Y44612D01*
G75*
G02*
X41612Y46760I-430J2148D01*
G01*
G75*
G02*
X43919Y48948I2191J0D01*
G01*
G75*
G03*
X44573Y49162I-389J2298D01*
G01*
X50569Y55157D01*
Y89517D01*
G75*
G03*
X50257Y90131I-2201J-730D01*
G01*
G75*
G02*
X49531Y91760I1465J1629D01*
G01*
G75*
G02*
X52944Y93579I2191J0D01*
G01*
Y94514D01*
G75*
G03*
X52632Y95128I-2201J-730D01*
G01*
G75*
G02*
X51906Y96757I1466J1630D01*
G01*
G75*
G02*
X56288I2191J0D01*
G01*
G75*
G02*
X55561Y95127I-2191J0D01*
G01*
G75*
G03*
X55251Y94515I1889J-1342D01*
G01*
Y93664D01*
G75*
G02*
X57561Y93586I1093J-1898D01*
G01*
Y94514D01*
G75*
G03*
X57250Y95128I-2201J-730D01*
G01*
G75*
G02*
X56524Y96757I1466J1630D01*
G01*
G75*
G02*
X60906I2191J0D01*
G01*
G75*
G02*
X60179Y95127I-2191J0D01*
G01*
G75*
G03*
X59869Y94515I1889J-1342D01*
G01*
Y93517D01*
G75*
G02*
X63527Y91890I1467J-1627D01*
G01*
G75*
G02*
X62800Y90260I-2191J0D01*
G01*
G75*
G03*
X62489Y89648I1889J-1342D01*
G01*
Y70916D01*
G75*
G02*
X66115Y69260I1435J-1656D01*
G01*
G75*
G02*
X65388Y67630I-2191J0D01*
G01*
G75*
G03*
X65078Y67019I1889J-1342D01*
G01*
Y45217D01*
G75*
G02*
X64739Y44400I-1154J0D01*
G01*
X63826Y43487D01*
G75*
G03*
X63612Y42833I2085J-1043D01*
G01*
G75*
G02*
X63615Y42718I-2126J-116D01*
G01*
Y42717D01*
G75*
G02*
X59233I-2191J0D01*
G01*
G75*
G02*
X61541Y44905I2191J0D01*
G01*
G75*
G03*
X62194Y45119I-389J2298D01*
G01*
X62771Y45695D01*
Y67017D01*
G75*
G03*
X62489Y67588I-2189J-724D01*
G01*
Y47586D01*
G75*
G02*
X62150Y46769I-1154J0D01*
G01*
X52543Y37162D01*
G75*
G02*
X51726Y36822I-817J814D01*
G01*
X50313D01*
X49953Y36463D01*
G75*
G03*
X51661Y33109I10693J3336D01*
G01*
X56276D01*
G75*
G03*
X57423Y35300I-5153J4094D01*
G01*
G75*
G02*
X58026Y36545I2086J-241D01*
G01*
X61066Y39586D01*
G75*
G02*
X62553Y40202I1488J-1488D01*
G01*
X66595D01*
X70106Y43713D01*
Y103754D01*
G75*
G02*
X70017Y104370I2101J617D01*
G01*
G75*
G02*
X70106Y104987I2190J0D01*
G01*
Y171124D01*
X69029D01*
Y166989D01*
G75*
G02*
X62592I-3219J0D01*
G01*
Y171124D01*
X62313D01*
G75*
G02*
X58049I-2132J0D01*
G01*
X54837D01*
G75*
G02*
X54891Y170776I-1100J-348D01*
G01*
Y163017D01*
X55713Y162194D01*
X55745D01*
G75*
G03*
X56373Y162497I-681J2218D01*
G01*
G75*
G02*
X56893Y162907I1593J-1481D01*
G01*
G75*
G02*
X56939Y162933I499J-851D01*
G01*
G75*
G02*
X60166Y161002I1037J-1931D01*
G01*
G75*
G02*
X56870Y159111I-2191J0D01*
G01*
G75*
G02*
X56821Y159140I760J1322D01*
G01*
G75*
G02*
X56319Y159568I1159J1867D01*
G01*
G75*
G03*
X55720Y159887I-1383J-1873D01*
G01*
X55235D01*
G75*
G02*
X54418Y160227I0J1154D01*
G01*
X52923Y161722D01*
G75*
G02*
X52584Y162539I814J817D01*
G01*
Y170298D01*
X52136Y170745D01*
X45620D01*
G75*
G03*
X45009Y170435I730J-2199D01*
G01*
G75*
G02*
X41329Y171124I-1630J1464D01*
G01*
X39557D01*
G75*
G02*
X35293I-2132J0D01*
G01*
X35013D01*
Y166989D01*
G75*
G02*
X28576I-3219J0D01*
G01*
Y171124D01*
X27176D01*
G37*
X72583Y34777D02*
G36*
X72583Y34777D02*
G75*
G03*
X73548Y33109I6128J2433D01*
G01*
X79051D01*
Y76138D01*
G75*
G02*
X79072Y76472I2741J-6D01*
G01*
Y112494D01*
G75*
G02*
X79051Y112828I2720J341D01*
G01*
Y162126D01*
G75*
G02*
X81047Y164688I2642J0D01*
G01*
Y171124D01*
X78415D01*
Y86017D01*
G75*
G02*
X78503Y85400I-2101J-617D01*
G01*
G75*
G02*
X78415Y84783I-2190J0D01*
G01*
Y41479D01*
G75*
G02*
X77798Y39992I-2104J1D01*
G01*
X72583Y34777D01*
G37*
X8309Y188812D02*
G36*
X8309Y188812D02*
Y175733D01*
X24533D01*
G75*
G02*
X27176Y173091I0J-2642D01*
G01*
Y171124D01*
X28576D01*
Y171320D01*
G75*
G02*
X35013I3219J0D01*
G01*
Y171124D01*
X35293D01*
G75*
G02*
X39557I2132J0D01*
G01*
X41329D01*
G75*
G02*
X41188Y171899I2050J774D01*
G01*
G75*
G02*
X45009Y173363I2191J0D01*
G01*
G75*
G03*
X45620Y173052I1342J1889D01*
G01*
X52614D01*
G75*
G02*
X53431Y172713I0J-1154D01*
G01*
X54552Y171593D01*
G75*
G02*
X54837Y171124I-814J-817D01*
G01*
X58049D01*
G75*
G02*
X62313I2132J0D01*
G01*
X62592D01*
Y171320D01*
G75*
G02*
X69029I3219J0D01*
G01*
Y171124D01*
X70106D01*
Y176642D01*
G75*
G02*
X70017Y177259I2119J619D01*
G01*
G75*
G02*
X74399I2191J0D01*
G01*
G75*
G02*
X74311Y176642I-2208J3D01*
G01*
Y175650D01*
G75*
G02*
X78503Y174759I2002J-891D01*
G01*
G75*
G02*
X78415Y174143I-2191J0D01*
G01*
Y171124D01*
X81047D01*
Y173090D01*
Y173090D01*
G75*
G02*
X83690Y175733I2643J0D01*
G01*
X100663D01*
Y188812D01*
X68858D01*
G75*
G02*
X69029Y187777I-3051J-1035D01*
G01*
Y183446D01*
G75*
G02*
X62592I-3219J0D01*
G01*
Y187777D01*
G75*
G02*
X62763Y188812I3222J0D01*
G01*
X34843D01*
G75*
G02*
X35013Y187777I-3051J-1035D01*
G01*
Y183446D01*
G75*
G02*
X28576I-3219J0D01*
G01*
Y187777D01*
G75*
G02*
X28747Y188812I3222J0D01*
G01*
X8309D01*
G37*
D02*
D14*
X31647Y139814D03*
X31757Y85899D03*
X32007Y59566D03*
X36375Y139814D03*
X42615Y59566D03*
D02*
D15*
X31795Y169156D02*
X35040D01*
X36205Y167991D01*
Y162190D01*
X36140Y162126D01*
X31795Y169156D02*
X28779D01*
X31795D02*
Y162483D01*
X32152Y162126D01*
X36140D01*
X31795Y185613D02*
Y169156D01*
Y185613D02*
X38131D01*
X38779Y184965D01*
X31795Y185613D02*
X24308D01*
X24284Y185589D01*
X65811Y169156D02*
X62529D01*
X61350Y167978D01*
Y162250D01*
X65811Y169156D02*
Y162842D01*
X65219Y162250D01*
X61350D01*
X65811Y169156D02*
Y185613D01*
Y169156D02*
X68779D01*
X65811Y185613D02*
X79399D01*
X80029Y184983D01*
X65811Y185613D02*
X59354D01*
X58803Y185061D01*
D02*
D16*
X43628Y133795D03*
Y142531D03*
Y151268D03*
Y160129D03*
X49979Y123964D03*
X49993Y133795D03*
Y142531D03*
Y151268D03*
Y160129D03*
D02*
D17*
X24284Y185589D03*
X36140Y162126D03*
X38779Y184965D03*
X41991Y85400D03*
Y95384D03*
Y105369D03*
X42615Y65431D03*
X43379Y171899D03*
X43803Y46760D03*
X46424Y44589D03*
X47732Y61063D03*
X48731Y85525D03*
Y95384D03*
X48803Y41961D03*
Y185061D03*
X48856Y105369D03*
X51722Y91760D03*
X54097Y96757D03*
X55029Y142483D03*
X55096Y132483D03*
X56344Y91765D03*
X57975Y161002D03*
X58715Y96757D03*
X58803Y185061D03*
X61336Y91890D03*
X61350Y162250D03*
X61424Y42717D03*
X63924Y69260D03*
X66578Y65431D03*
X66702Y52826D03*
X67529Y132483D03*
Y142483D03*
X67576Y122467D03*
X68949Y85400D03*
Y95509D03*
X72208Y104370D03*
Y177259D03*
X76312Y85400D03*
Y174759D03*
X80029Y184983D03*
X90029D03*
D02*
D18*
X37912Y22750D03*
X48712D03*
X59512D03*
X70312D03*
D02*
D20*
X31795Y169156D03*
Y185613D03*
X65811Y169156D03*
Y185613D03*
X0Y0D02*
M02*
