G04 DesignSpark PCB PRO Gerber Version 10.0 Build 5299*
G04 #@! TF.Part,Single*
G04 #@! TF.FileFunction,Copper,L1,Top*
G04 #@! TF.FilePolarity,Positive*
%FSLAX35Y35*%
%MOIN*%
G04 #@! TA.AperFunction,ComponentPad*
%ADD20O,0.03937X0.08268*%
G04 #@! TA.AperFunction,SMDPad,CuDef*
%ADD110R,0.01181X0.04488*%
%ADD113R,0.01575X0.07480*%
%ADD109R,0.02362X0.04488*%
%ADD114R,0.02559X0.07283*%
%ADD116R,0.03150X0.03150*%
G04 #@! TD.AperFunction*
%ADD13C,0.00500*%
%ADD12C,0.00602*%
%ADD102C,0.00618*%
%ADD104C,0.00630*%
%ADD85C,0.00709*%
%ADD10C,0.00787*%
%ADD83C,0.01000*%
%ADD15C,0.01500*%
G04 #@! TA.AperFunction,ViaPad*
%ADD16C,0.02362*%
G04 #@! TD.AperFunction*
%ADD11C,0.02500*%
G04 #@! TA.AperFunction,ViaPad*
%ADD17C,0.02677*%
%ADD14C,0.03200*%
G04 #@! TA.AperFunction,SMDPad,CuDef*
%AMT18*0 Offset Rectangle Pad at angle 180*4,1,4,0.03500,0.08311,-0.03500,0.08311,-0.03500,-0.03500,0.03500,-0.03500,0.03500,0.08311,0*%
%ADD18T18*%
%ADD108R,0.02362X0.01181*%
%ADD107R,0.02362X0.01575*%
%ADD105R,0.02362X0.02008*%
%ADD106R,0.03543X0.02756*%
%ADD115R,0.03500X0.02800*%
%ADD111R,0.04213X0.03031*%
%ADD112R,0.04291X0.03937*%
G04 #@! TD.AperFunction*
X0Y0D02*
D02*
D10*
X5174Y15510D02*
Y28961D01*
X26530D01*
G75*
G03*
X27529Y29959I0J998D01*
G01*
Y76136D01*
G75*
G03*
X26530Y77135I-998J0D01*
G01*
X5174D01*
Y111829D01*
X26530D01*
G75*
G03*
X27529Y112828I0J998D01*
G01*
Y162126D01*
G75*
G03*
X26530Y163124I-998J0D01*
G01*
X25532D01*
Y173091D01*
G75*
G03*
X24533Y174090I-998J0D01*
G01*
X5174D01*
Y190706D01*
X103598D01*
Y174089D01*
X83690D01*
G75*
G03*
X82691Y173090I0J-999D01*
G01*
Y163124D01*
X81693D01*
G75*
G03*
X80695Y162126I0J-998D01*
G01*
Y112828D01*
G75*
G03*
X81693Y111830I998J0D01*
G01*
X103600D01*
Y77136D01*
X81693D01*
G75*
G03*
X80695Y76138I0J-998D01*
G01*
Y29959D01*
G75*
G03*
X81693Y28961I998J0D01*
G01*
X103600D01*
Y15510D01*
X5174D01*
X29316Y149021D02*
Y137442D01*
X39746D01*
Y149021D01*
X37517D01*
Y143316D01*
X30517D01*
Y149021D01*
X29316D01*
G36*
X29316Y149021D02*
Y137442D01*
X39746D01*
Y149021D01*
X37517D01*
Y143316D01*
X30517D01*
Y149021D01*
X29316D01*
G37*
Y159753D02*
Y150519D01*
X30517D01*
Y156222D01*
X37517D01*
Y150519D01*
X39746D01*
Y159753D01*
X29316D01*
G36*
X29316Y159753D02*
Y150519D01*
X30517D01*
Y156222D01*
X37517D01*
Y150519D01*
X39746D01*
Y159753D01*
X29316D01*
G37*
X45850Y166912D02*
Y169753D01*
G75*
G02*
X46499Y170401I648J0D01*
G01*
X49288D01*
G75*
G02*
X49787Y169902I0J-499D01*
G01*
Y166912D01*
X45850Y169497D02*
G75*
G02*
X45654Y169156I-735J197D01*
G01*
X46047D01*
G75*
G02*
X45850Y169497I538J538D01*
G01*
G36*
X45850Y169497D02*
G75*
G02*
X45654Y169156I-735J197D01*
G01*
X46047D01*
G75*
G02*
X45850Y169497I538J538D01*
G01*
G37*
X49787D02*
G75*
G02*
X49591Y169156I-735J197D01*
G01*
X49984D01*
G75*
G02*
X49787Y169497I538J538D01*
G01*
G36*
X49787Y169497D02*
G75*
G02*
X49591Y169156I-735J197D01*
G01*
X49984D01*
G75*
G02*
X49787Y169497I538J538D01*
G01*
G37*
D02*
D11*
X32203Y60919D02*
G75*
G02*
X32703Y61785I1867J-500D01*
G01*
X31703D01*
G75*
G02*
X32203Y60919I-1366J-1366D01*
G01*
G36*
X32203Y60919D02*
G75*
G02*
X32703Y61785I1867J-500D01*
G01*
X31703D01*
G75*
G02*
X32203Y60919I-1366J-1366D01*
G01*
G37*
Y63185D02*
Y59761D01*
X32007Y59566D01*
X42615D02*
X54097Y48084D01*
X61710D01*
X70571Y39223D01*
X73691D01*
X75712Y37202D01*
Y22750D01*
Y34958D02*
G75*
G02*
X73462Y31061I-8398J2250D01*
G01*
X77962D01*
G75*
G02*
X75712Y34958I6147J6147D01*
G01*
G36*
X75712Y34958D02*
G75*
G02*
X73462Y31061I-8398J2250D01*
G01*
X77962D01*
G75*
G02*
X75712Y34958I6147J6147D01*
G01*
G37*
D02*
D12*
X32512Y22750D02*
Y44444D01*
X34828Y46760D01*
X43803D01*
X32512Y36602D02*
G75*
G02*
X29313Y31061I-11939J3199D01*
G01*
X35711D01*
G75*
G02*
X32512Y36602I8739J8739D01*
G01*
G36*
X32512Y36602D02*
G75*
G02*
X29313Y31061I-11939J3199D01*
G01*
X35711D01*
G75*
G02*
X32512Y36602I8739J8739D01*
G01*
G37*
X33365Y50061D02*
G75*
G02*
X34207Y49575I-486J-1815D01*
G01*
Y50548D01*
G75*
G02*
X33365Y50061I-1328J1328D01*
G01*
G36*
X33365Y50061D02*
G75*
G02*
X34207Y49575I-486J-1815D01*
G01*
Y50548D01*
G75*
G02*
X33365Y50061I-1328J1328D01*
G01*
G37*
Y56361D02*
G75*
G02*
X34207Y55874I-486J-1815D01*
G01*
Y56847D01*
G75*
G02*
X33365Y56361I-1328J1328D01*
G01*
G36*
X33365Y56361D02*
G75*
G02*
X34207Y55874I-486J-1815D01*
G01*
Y56847D01*
G75*
G02*
X33365Y56361I-1328J1328D01*
G01*
G37*
X33706Y52227D02*
G75*
G02*
X34207Y51937I-289J-1080D01*
G01*
Y52516D01*
G75*
G02*
X33706Y52227I-791J791D01*
G01*
G36*
X33706Y52227D02*
G75*
G02*
X34207Y51937I-289J-1080D01*
G01*
Y52516D01*
G75*
G02*
X33706Y52227I-791J791D01*
G01*
G37*
Y54195D02*
G75*
G02*
X34207Y53906I-289J-1080D01*
G01*
Y54485D01*
G75*
G02*
X33706Y54195I-791J791D01*
G01*
G36*
X33706Y54195D02*
G75*
G02*
X34207Y53906I-289J-1080D01*
G01*
Y54485D01*
G75*
G02*
X33706Y54195I-791J791D01*
G01*
G37*
X35388Y50061D02*
X32022D01*
X35388Y52227D02*
X32022D01*
X35388Y54195D02*
X32022D01*
X35388Y56361D02*
X32022D01*
X36722Y71769D02*
G75*
G02*
X37700Y73463I3651J-978D01*
G01*
X35744D01*
G75*
G02*
X36722Y71769I-2673J-2673D01*
G01*
G36*
X36722Y71769D02*
G75*
G02*
X37700Y73463I3651J-978D01*
G01*
X35744D01*
G75*
G02*
X36722Y71769I-2673J-2673D01*
G01*
G37*
X39719Y52227D02*
X42865D01*
X46424Y48667D01*
Y44589D01*
X41401Y52227D02*
G75*
G02*
X40900Y52516I289J1080D01*
G01*
Y51937D01*
G75*
G02*
X41401Y52227I791J-791D01*
G01*
G36*
X41401Y52227D02*
G75*
G02*
X40900Y52516I289J1080D01*
G01*
Y51937D01*
G75*
G02*
X41401Y52227I791J-791D01*
G01*
G37*
Y54195D02*
G75*
G02*
X40900Y54485I289J1080D01*
G01*
Y53906D01*
G75*
G02*
X41401Y54195I791J-791D01*
G01*
G36*
X41401Y54195D02*
G75*
G02*
X40900Y54485I289J1080D01*
G01*
Y53906D01*
G75*
G02*
X41401Y54195I791J-791D01*
G01*
G37*
X41722Y71769D02*
G75*
G02*
X42700Y73463I3651J-978D01*
G01*
X40744D01*
G75*
G02*
X41722Y71769I-2673J-2673D01*
G01*
G36*
X41722Y71769D02*
G75*
G02*
X42700Y73463I3651J-978D01*
G01*
X40744D01*
G75*
G02*
X41722Y71769I-2673J-2673D01*
G01*
G37*
Y77105D02*
Y71192D01*
X42491Y70424D01*
X58465D01*
X60694Y68195D01*
Y60564D01*
X41728Y46760D02*
G75*
G03*
X43285Y47659I-898J3353D01*
G01*
G75*
G03*
Y45862I519J-898D01*
G01*
G75*
G03*
X41728Y46760I-2455J-2455D01*
G01*
G36*
X41728Y46760D02*
G75*
G03*
X43285Y47659I-898J3353D01*
G01*
G75*
G03*
Y45862I519J-898D01*
G01*
G75*
G03*
X41728Y46760I-2455J-2455D01*
G01*
G37*
X41742Y50061D02*
G75*
G02*
X40900Y50548I486J1815D01*
G01*
Y49575D01*
G75*
G02*
X41742Y50061I1328J-1328D01*
G01*
G36*
X41742Y50061D02*
G75*
G02*
X40900Y50548I486J1815D01*
G01*
Y49575D01*
G75*
G02*
X41742Y50061I1328J-1328D01*
G01*
G37*
Y56361D02*
G75*
G02*
X40900Y56847I486J1815D01*
G01*
Y55874D01*
G75*
G02*
X41742Y56361I1328J-1328D01*
G01*
G36*
X41742Y56361D02*
G75*
G02*
X40900Y56847I486J1815D01*
G01*
Y55874D01*
G75*
G02*
X41742Y56361I1328J-1328D01*
G01*
G37*
X41913Y166912D02*
Y170433D01*
X43379Y171899D01*
X41913Y169657D02*
G75*
G02*
X41624Y169156I-1080J289D01*
G01*
X42203D01*
G75*
G02*
X41913Y169657I791J791D01*
G01*
G36*
X41913Y169657D02*
G75*
G02*
X41624Y169156I-1080J289D01*
G01*
X42203D01*
G75*
G02*
X41913Y169657I791J791D01*
G01*
G37*
X43312Y36602D02*
G75*
G02*
X40113Y31061I-11939J3199D01*
G01*
X46511D01*
G75*
G02*
X43312Y36602I8739J8739D01*
G01*
G36*
X43312Y36602D02*
G75*
G02*
X40113Y31061I-11939J3199D01*
G01*
X46511D01*
G75*
G02*
X43312Y36602I8739J8739D01*
G01*
G37*
X43803Y46760D02*
Y49461D01*
X43203Y50061D01*
X39719D01*
X43803Y48835D02*
G75*
G03*
X44702Y47279I3353J898D01*
G01*
G75*
G03*
X42905I-898J-519D01*
G01*
G75*
G03*
X43803Y48835I-2455J2455D01*
G01*
G36*
X43803Y48835D02*
G75*
G03*
X44702Y47279I3353J898D01*
G01*
G75*
G03*
X42905I-898J-519D01*
G01*
G75*
G03*
X43803Y48835I-2455J2455D01*
G01*
G37*
X44961Y43119D02*
G75*
G03*
X45422Y44856I-3010J1729D01*
G01*
G75*
G03*
X46695Y43588I1003J-266D01*
G01*
G75*
G03*
X44961Y43119I7J-3471D01*
G01*
G36*
X44961Y43119D02*
G75*
G03*
X45422Y44856I-3010J1729D01*
G01*
G75*
G03*
X46695Y43588I1003J-266D01*
G01*
G75*
G03*
X44961Y43119I7J-3471D01*
G01*
G37*
X46424Y44589D02*
Y44583D01*
X43312Y41470D01*
Y22750D01*
X46424Y46664D02*
G75*
G03*
X47323Y45108I3353J898D01*
G01*
G75*
G03*
X45526I-898J-519D01*
G01*
G75*
G03*
X46424Y46664I-2455J2455D01*
G01*
G36*
X46424Y46664D02*
G75*
G03*
X47323Y45108I3353J898D01*
G01*
G75*
G03*
X45526I-898J-519D01*
G01*
G75*
G03*
X46424Y46664I-2455J2455D01*
G01*
G37*
X48803Y41961D02*
Y48257D01*
X42865Y54195D01*
X39719D01*
X48803Y44036D02*
G75*
G03*
X49702Y42480I3353J898D01*
G01*
G75*
G03*
X47905I-898J-519D01*
G01*
G75*
G03*
X48803Y44036I-2455J2455D01*
G01*
G36*
X48803Y44036D02*
G75*
G03*
X49702Y42480I3353J898D01*
G01*
G75*
G03*
X47905I-898J-519D01*
G01*
G75*
G03*
X48803Y44036I-2455J2455D01*
G01*
G37*
X50307Y40532D02*
G75*
G03*
X48560Y40952I-1657J-3050D01*
G01*
G75*
G03*
X49798Y42256I243J1009D01*
G01*
G75*
G03*
X50307Y40532I3470J90D01*
G01*
G36*
X50307Y40532D02*
G75*
G03*
X48560Y40952I-1657J-3050D01*
G01*
G75*
G03*
X49798Y42256I243J1009D01*
G01*
G75*
G03*
X50307Y40532I3470J90D01*
G01*
G37*
X51245Y60564D02*
Y67660D01*
X49979Y68926D01*
X38746D01*
X36722Y70950D01*
Y77105D01*
X51245Y65146D02*
G75*
G02*
X50759Y64304I-1815J486D01*
G01*
X51731D01*
G75*
G02*
X51245Y65146I1328J1328D01*
G01*
G36*
X51245Y65146D02*
G75*
G02*
X50759Y64304I-1815J486D01*
G01*
X51731D01*
G75*
G02*
X51245Y65146I1328J1328D01*
G01*
G37*
X51722Y93835D02*
G75*
G03*
X52620Y92279I3353J898D01*
G01*
G75*
G03*
X50824I-898J-519D01*
G01*
G75*
G03*
X51722Y93835I-2455J2455D01*
G01*
G36*
X51722Y93835D02*
G75*
G03*
X52620Y92279I3353J898D01*
G01*
G75*
G03*
X50824I-898J-519D01*
G01*
G75*
G03*
X51722Y93835I-2455J2455D01*
G01*
G37*
Y108580D02*
G75*
G02*
X52700Y110274I3651J-978D01*
G01*
X50744D01*
G75*
G02*
X51722Y108580I-2673J-2673D01*
G01*
G36*
X51722Y108580D02*
G75*
G02*
X52700Y110274I3651J-978D01*
G01*
X50744D01*
G75*
G02*
X51722Y108580I-2673J-2673D01*
G01*
G37*
Y113916D02*
Y91760D01*
X53724Y164167D02*
G75*
G02*
X54014Y164668I1080J-289D01*
G01*
X53435D01*
G75*
G02*
X53724Y164167I-791J-791D01*
G01*
G36*
X53724Y164167D02*
G75*
G02*
X54014Y164668I1080J-289D01*
G01*
X53435D01*
G75*
G02*
X53724Y164167I-791J-791D01*
G01*
G37*
Y166912D02*
Y149034D01*
X54736Y148023D01*
X58100D01*
X54097Y98832D02*
G75*
G03*
X54996Y97276I3353J898D01*
G01*
G75*
G03*
X53199I-898J-519D01*
G01*
G75*
G03*
X54097Y98832I-2455J2455D01*
G01*
G36*
X54097Y98832D02*
G75*
G03*
X54996Y97276I3353J898D01*
G01*
G75*
G03*
X53199I-898J-519D01*
G01*
G75*
G03*
X54097Y98832I-2455J2455D01*
G01*
G37*
X54112Y22750D02*
Y36728D01*
X48879Y41961D01*
X48803D01*
X54112Y36602D02*
G75*
G02*
X50913Y31061I-11939J3199D01*
G01*
X57311D01*
G75*
G02*
X54112Y36602I8739J8739D01*
G01*
G36*
X54112Y36602D02*
G75*
G02*
X50913Y31061I-11939J3199D01*
G01*
X57311D01*
G75*
G02*
X54112Y36602I8739J8739D01*
G01*
G37*
X56344Y93840D02*
G75*
G03*
X57242Y92283I3353J898D01*
G01*
G75*
G03*
X55445I-898J-519D01*
G01*
G75*
G03*
X56344Y93840I-2455J2455D01*
G01*
G36*
X56344Y93840D02*
G75*
G03*
X57242Y92283I3353J898D01*
G01*
G75*
G03*
X55445I-898J-519D01*
G01*
G75*
G03*
X56344Y93840I-2455J2455D01*
G01*
G37*
X56722Y108580D02*
G75*
G02*
X57700Y110274I3651J-978D01*
G01*
X55744D01*
G75*
G02*
X56722Y108580I-2673J-2673D01*
G01*
G36*
X56722Y108580D02*
G75*
G02*
X57700Y110274I3651J-978D01*
G01*
X55744D01*
G75*
G02*
X56722Y108580I-2673J-2673D01*
G01*
G37*
Y113916D02*
Y103875D01*
X54097Y101250D01*
Y96757D01*
X57975Y158928D02*
G75*
G03*
X57077Y160484I-3353J-898D01*
G01*
G75*
G03*
X58874I898J519D01*
G01*
G75*
G03*
X57975Y158928I2455J-2455D01*
G01*
G36*
X57975Y158928D02*
G75*
G03*
X57077Y160484I-3353J-898D01*
G01*
G75*
G03*
X58874I898J519D01*
G01*
G75*
G03*
X57975Y158928I2455J-2455D01*
G01*
G37*
Y161002D02*
Y156010D01*
X58715Y98832D02*
G75*
G03*
X59613Y97276I3353J898D01*
G01*
G75*
G03*
X57817I-898J-519D01*
G01*
G75*
G03*
X58715Y98832I-2455J2455D01*
G01*
G36*
X58715Y98832D02*
G75*
G03*
X59613Y97276I3353J898D01*
G01*
G75*
G03*
X57817I-898J-519D01*
G01*
G75*
G03*
X58715Y98832I-2455J2455D01*
G01*
G37*
X59350Y42717D02*
G75*
G03*
X60906Y43616I-898J3353D01*
G01*
G75*
G03*
Y41819I519J-898D01*
G01*
G75*
G03*
X59350Y42717I-2455J-2455D01*
G01*
G36*
X59350Y42717D02*
G75*
G03*
X60906Y43616I-898J3353D01*
G01*
G75*
G03*
Y41819I519J-898D01*
G01*
G75*
G03*
X59350Y42717I-2455J-2455D01*
G01*
G37*
X60694Y65146D02*
G75*
G02*
X60207Y64304I-1815J486D01*
G01*
X61180D01*
G75*
G02*
X60694Y65146I1328J1328D01*
G01*
G36*
X60694Y65146D02*
G75*
G02*
X60207Y64304I-1815J486D01*
G01*
X61180D01*
G75*
G02*
X60694Y65146I1328J1328D01*
G01*
G37*
X61336Y91890D02*
Y98102D01*
X71722Y108489D01*
Y113916D01*
X61336Y93965D02*
G75*
G03*
X62234Y92408I3353J898D01*
G01*
G75*
G03*
X60437I-898J-519D01*
G01*
G75*
G03*
X61336Y93965I-2455J2455D01*
G01*
G36*
X61336Y93965D02*
G75*
G03*
X62234Y92408I3353J898D01*
G01*
G75*
G03*
X60437I-898J-519D01*
G01*
G75*
G03*
X61336Y93965I-2455J2455D01*
G01*
G37*
X61424Y40643D02*
G75*
G03*
X60526Y42199I-3353J-898D01*
G01*
G75*
G03*
X62323I898J519D01*
G01*
G75*
G03*
X61424Y40643I2455J-2455D01*
G01*
G36*
X61424Y40643D02*
G75*
G03*
X60526Y42199I-3353J-898D01*
G01*
G75*
G03*
X62323I898J519D01*
G01*
G75*
G03*
X61424Y40643I2455J-2455D01*
G01*
G37*
Y42717D02*
Y40632D01*
X64912Y37145D01*
Y22750D01*
X61424Y42717D02*
X56340D01*
X42697Y56361D01*
X39719D01*
X61722Y71769D02*
G75*
G02*
X62700Y73463I3651J-978D01*
G01*
X60744D01*
G75*
G02*
X61722Y71769I-2673J-2673D01*
G01*
G36*
X61722Y71769D02*
G75*
G02*
X62700Y73463I3651J-978D01*
G01*
X60744D01*
G75*
G02*
X61722Y71769I-2673J-2673D01*
G01*
G37*
Y77105D02*
Y71463D01*
X63924Y69260D01*
X61722Y108580D02*
G75*
G02*
X62700Y110274I3651J-978D01*
G01*
X60744D01*
G75*
G02*
X61722Y108580I-2673J-2673D01*
G01*
G36*
X61722Y108580D02*
G75*
G02*
X62700Y110274I3651J-978D01*
G01*
X60744D01*
G75*
G02*
X61722Y108580I-2673J-2673D01*
G01*
G37*
Y113916D02*
Y105493D01*
X56344Y100115D01*
Y91765D01*
X62457Y70727D02*
G75*
G03*
X64193Y70262I1735J3006D01*
G01*
G75*
G03*
X62922Y68992I-269J-1002D01*
G01*
G75*
G03*
X62457Y70727I-3471J0D01*
G01*
G36*
X62457Y70727D02*
G75*
G03*
X64193Y70262I1735J3006D01*
G01*
G75*
G03*
X62922Y68992I-269J-1002D01*
G01*
G75*
G03*
X62457Y70727I-3471J0D01*
G01*
G37*
X64912Y36602D02*
G75*
G02*
X61713Y31061I-11939J3199D01*
G01*
X68111D01*
G75*
G02*
X64912Y36602I8739J8739D01*
G01*
G36*
X64912Y36602D02*
G75*
G02*
X61713Y31061I-11939J3199D01*
G01*
X68111D01*
G75*
G02*
X64912Y36602I8739J8739D01*
G01*
G37*
X66722Y108580D02*
G75*
G02*
X67700Y110274I3651J-978D01*
G01*
X65744D01*
G75*
G02*
X66722Y108580I-2673J-2673D01*
G01*
G36*
X66722Y108580D02*
G75*
G02*
X67700Y110274I3651J-978D01*
G01*
X65744D01*
G75*
G02*
X66722Y108580I-2673J-2673D01*
G01*
G37*
Y113916D02*
Y107116D01*
X58715Y99109D01*
Y96757D01*
X69318Y58692D02*
Y62686D01*
X71722Y65090D01*
Y77105D01*
Y71769D02*
G75*
G02*
X72700Y73463I3651J-978D01*
G01*
X70744D01*
G75*
G02*
X71722Y71769I-2673J-2673D01*
G01*
G36*
X71722Y71769D02*
G75*
G02*
X72700Y73463I3651J-978D01*
G01*
X70744D01*
G75*
G02*
X71722Y71769I-2673J-2673D01*
G01*
G37*
Y108580D02*
G75*
G02*
X72700Y110274I3651J-978D01*
G01*
X70744D01*
G75*
G02*
X71722Y108580I-2673J-2673D01*
G01*
G36*
X71722Y108580D02*
G75*
G02*
X72700Y110274I3651J-978D01*
G01*
X70744D01*
G75*
G02*
X71722Y108580I-2673J-2673D01*
G01*
G37*
X73675Y105837D02*
G75*
G03*
X73210Y104102I3006J-1735D01*
G01*
G75*
G03*
X71940Y105372I-1002J269D01*
G01*
G75*
G03*
X73675Y105837I0J3471D01*
G01*
G36*
X73675Y105837D02*
G75*
G03*
X73210Y104102I3006J-1735D01*
G01*
G75*
G03*
X71940Y105372I-1002J269D01*
G01*
G75*
G03*
X73675Y105837I0J3471D01*
G01*
G37*
X76312Y83325D02*
G75*
G03*
X75414Y84881I-3353J-898D01*
G01*
G75*
G03*
X77211I898J519D01*
G01*
G75*
G03*
X76312Y83325I2455J-2455D01*
G01*
G36*
X76312Y83325D02*
G75*
G03*
X75414Y84881I-3353J-898D01*
G01*
G75*
G03*
X77211I898J519D01*
G01*
G75*
G03*
X76312Y83325I2455J-2455D01*
G01*
G37*
X76318Y58692D02*
Y48960D01*
X76315Y48957D01*
X76722Y77105D02*
Y82619D01*
X76312Y83029D01*
Y85400D01*
X76722Y82441D02*
G75*
G02*
X75744Y80746I-3651J978D01*
G01*
X77700D01*
G75*
G02*
X76722Y82441I2673J2673D01*
G01*
G36*
X76722Y82441D02*
G75*
G02*
X75744Y80746I-3651J978D01*
G01*
X77700D01*
G75*
G02*
X76722Y82441I2673J2673D01*
G01*
G37*
Y113916D02*
Y108884D01*
X72208Y104370D01*
D02*
D13*
X8059Y189062D02*
Y186381D01*
X19407D01*
G75*
G02*
X20657Y185131I0J-1250D01*
G01*
Y181763D01*
X23013D01*
G75*
G02*
X24263Y180513I0J-1250D01*
G01*
Y175733D01*
X24533D01*
G75*
G02*
X27176Y173091I0J-2642D01*
G01*
Y164688D01*
G75*
G02*
X29172Y162126I-645J-2562D01*
G01*
Y160991D01*
G75*
G02*
X29316Y160999I143J-1238D01*
G01*
X37752D01*
Y163419D01*
X33773D01*
Y164451D01*
G75*
G02*
X28576Y166989I-1978J2539D01*
G01*
Y171320D01*
G75*
G02*
X35013I3219J0D01*
G01*
Y170407D01*
X35418D01*
G75*
G02*
X38531Y172947I2007J718D01*
G01*
Y173105D01*
G75*
G02*
Y173107I621J1D01*
G01*
G75*
G02*
Y173108I627J0D01*
G01*
G75*
G02*
X39001Y174241I1602J0D01*
G01*
X40623Y175864D01*
G75*
G02*
X41759Y176333I1133J-1133D01*
G01*
X45126D01*
G75*
G02*
X46261Y175862I0J-1602D01*
G01*
X48161Y173962D01*
X55110D01*
G75*
G02*
X56245Y173491I0J-1602D01*
G01*
X58109Y171626D01*
G75*
G02*
X62313Y171124I2072J-502D01*
G01*
G75*
G02*
X62189Y170407I-2132J0D01*
G01*
X62592D01*
Y171320D01*
G75*
G02*
X69029I3219J0D01*
G01*
Y166989D01*
G75*
G02*
X63832Y164451I-3219J0D01*
G01*
Y163419D01*
X58970D01*
Y163816D01*
X55167D01*
Y163815D01*
X54878D01*
Y149512D01*
X55102Y149288D01*
Y150844D01*
X61098D01*
Y145202D01*
X55102D01*
Y146869D01*
X54739D01*
G75*
G02*
X53920Y147207I-3J1154D01*
G01*
X52909Y148219D01*
G75*
G02*
X52571Y149034I816J816D01*
G01*
G75*
G02*
Y149035I610J0D01*
G01*
G75*
G02*
Y149037I607J1D01*
G01*
Y162655D01*
G75*
G02*
X51132Y161956I-1439J1132D01*
G01*
X51131D01*
X48969D01*
G75*
G02*
X48704Y161502I-1149J367D01*
G01*
Y125746D01*
G75*
G02*
X45985Y123027I-2719J0D01*
G01*
G75*
G02*
X43406Y125606I0J2580D01*
G01*
Y126480D01*
G75*
G03*
X43239Y126646I-166J0D01*
G01*
X42990D01*
G75*
G03*
X42929Y126585I0J-61D01*
G01*
Y119336D01*
G75*
G03*
X43500Y118411I2252J752D01*
G01*
X43854Y118410D01*
Y109422D01*
X39590D01*
Y109485D01*
X38854D01*
Y109422D01*
X34590D01*
Y117539D01*
G75*
G02*
Y117548I1072J4D01*
G01*
Y117549D01*
G75*
G02*
Y117557I1072J4D01*
G01*
G75*
G02*
Y117566I1072J4D01*
G01*
G75*
G02*
Y117567I1880J0D01*
G01*
Y117567D01*
G75*
G02*
Y117576I1072J4D01*
G01*
Y118410D01*
X34943D01*
G75*
G03*
X35515Y119336I-1681J1680D01*
G01*
Y125836D01*
G75*
G02*
X41118Y131439I5602J0D01*
G01*
X41742D01*
G75*
G03*
X44918Y134615I0J3176D01*
G01*
Y161509D01*
G75*
G02*
X44644Y162275I933J766D01*
G01*
G75*
G02*
Y162276I644J0D01*
G01*
G75*
G02*
Y162278I644J1D01*
G01*
Y163815D01*
X44407D01*
Y163816D01*
X43356D01*
Y163815D01*
X41142D01*
G75*
G02*
X40957Y163574I-1357J853D01*
G01*
Y160046D01*
G75*
G02*
X40992Y159753I-1211J-293D01*
G01*
Y150519D01*
G75*
G02*
X40741Y149770I-1246J0D01*
G01*
G75*
G02*
X40992Y149021I-996J-749D01*
G01*
Y137442D01*
G75*
G02*
X39746Y136196I-1246J0D01*
G01*
X29316D01*
G75*
G02*
X29172Y136204I0J1246D01*
G01*
Y112828D01*
G75*
G02*
X29151Y112493I-2644J0D01*
G01*
Y76471D01*
G75*
G02*
X29172Y76136I-2622J-335D01*
G01*
Y32859D01*
X29371D01*
G75*
G03*
X31358Y36757I-8798J6941D01*
G01*
Y44444D01*
G75*
G02*
X31383Y44684I1154J0D01*
G01*
Y48592D01*
G75*
G02*
X30419Y50061I638J1470D01*
G01*
Y56159D01*
G75*
G02*
X30405Y56375I1589J216D01*
G01*
Y57611D01*
G75*
G03*
X30306Y57800I-1141J-479D01*
G01*
G75*
G02*
X29890Y58328I1701J1767D01*
G01*
G75*
G02*
X29876Y58352I1417J832D01*
G01*
G75*
G02*
X29866Y60762I2131J1214D01*
G01*
G75*
G02*
X29781Y60933I1836J1025D01*
G01*
X29600D01*
Y61759D01*
G75*
G02*
Y61772I2243J7D01*
G01*
G75*
G02*
Y61785I2177J7D01*
G01*
G75*
G02*
Y61798I2243J7D01*
G01*
G75*
G02*
Y61811I2177J7D01*
G01*
Y65437D01*
X34303D01*
Y65836D01*
X40303D01*
Y60537D01*
X34410D01*
X34320Y60381D01*
G75*
G02*
X34138Y58352I-2313J-815D01*
G01*
G75*
G02*
X34124Y58328I-1430J809D01*
G01*
G75*
G02*
X33895Y58000I-2117J1238D01*
G01*
X34204D01*
G75*
G02*
X34209I2J-711D01*
G01*
X37421D01*
Y57694D01*
X37685D01*
Y58000D01*
X40728D01*
G75*
G02*
X40163Y59566I1888J1565D01*
G01*
G75*
G02*
X44995Y60159I2452J0D01*
G01*
X54968Y50186D01*
X61710D01*
G75*
G02*
X63197Y49570I0J-2102D01*
G01*
X71442Y41325D01*
X73691D01*
G75*
G02*
X75178Y40709I0J-2102D01*
G01*
X77198Y38689D01*
G75*
G02*
X77814Y37202I-1486J-1487D01*
G01*
Y35253D01*
G75*
G03*
X79051Y32982I6294J1956D01*
G01*
Y55871D01*
X77471D01*
Y51383D01*
X78742D01*
Y46529D01*
X73887D01*
Y51383D01*
X75164D01*
Y55871D01*
X73320D01*
Y61513D01*
X79051D01*
Y76138D01*
G75*
G02*
X79072Y76472I2644J0D01*
G01*
Y112494D01*
G75*
G02*
X79051Y112828I2622J335D01*
G01*
Y162126D01*
G75*
G02*
X81047Y164688I2642J0D01*
G01*
Y173090D01*
G75*
G02*
X81896Y175030I2643J0D01*
G01*
X78849D01*
X78502Y174683D01*
G75*
G02*
X74121Y174759I-2190J76D01*
G01*
G75*
G02*
X76236Y176949I2191J0D01*
G01*
X77050Y177763D01*
G75*
G02*
X77778Y178182I1135J-1131D01*
G01*
X75398D01*
X74398Y177182D01*
G75*
G02*
X70017Y177259I-2190J76D01*
G01*
G75*
G02*
X72132Y179448I2191J0D01*
G01*
X73599Y180915D01*
G75*
G02*
X74734Y181387I1135J-1131D01*
G01*
X79066D01*
X79083Y181396D01*
Y181641D01*
X79917D01*
G75*
G02*
X79954I19J-1611D01*
G01*
X82624D01*
Y182037D01*
X87486D01*
Y181641D01*
X91024D01*
Y177928D01*
X90778D01*
G75*
G02*
X90593Y177687I-1357J853D01*
G01*
Y176632D01*
G75*
G02*
X90316Y175733I-1602J0D01*
G01*
X100913D01*
Y189062D01*
X68761D01*
G75*
G02*
X69029Y187777I-2951J-1285D01*
G01*
Y183446D01*
G75*
G02*
X62592I-3219J0D01*
G01*
Y187777D01*
G75*
G02*
X62860Y189062I3219J0D01*
G01*
X34746D01*
G75*
G02*
X35013Y187777I-2951J-1285D01*
G01*
Y183446D01*
G75*
G02*
X28576I-3219J0D01*
G01*
Y187777D01*
G75*
G02*
X28844Y189062I3219J0D01*
G01*
X8059D01*
X74590Y118411D02*
X78854D01*
Y109422D01*
X77876D01*
Y108884D01*
G75*
G02*
X77536Y108067I-1154J0D01*
G01*
X74610Y105140D01*
G75*
G03*
X74396Y104486I2075J-1040D01*
G01*
G75*
G02*
X74399Y104370I-2185J-117D01*
G01*
G75*
G02*
X70017I-2191J0D01*
G01*
G75*
G02*
X70286Y105421I2191J0D01*
G01*
X62489Y97624D01*
Y94131D01*
G75*
G03*
X62800Y93520I2196J729D01*
G01*
G75*
G02*
X63527Y91890I-1464J-1630D01*
G01*
G75*
G02*
X59145I-2191J0D01*
G01*
G75*
G02*
X59871Y93519I2191J0D01*
G01*
G75*
G03*
X60182Y94133I-1890J1344D01*
G01*
Y95130D01*
G75*
G02*
X57497Y94936I-1467J1627D01*
G01*
Y94007D01*
G75*
G03*
X57807Y93395I2196J729D01*
G01*
G75*
G02*
X58535Y91765I-1464J-1630D01*
G01*
G75*
G02*
X54153I-2191J0D01*
G01*
G75*
G02*
X54879Y93394I2191J0D01*
G01*
G75*
G03*
X55190Y94008I-1890J1344D01*
G01*
Y94858D01*
G75*
G02*
X52876Y94938I-1093J1899D01*
G01*
Y94002D01*
G75*
G03*
X53186Y93390I2196J729D01*
G01*
G75*
G02*
X53913Y91760I-1464J-1630D01*
G01*
G75*
G02*
X49531I-2191J0D01*
G01*
G75*
G02*
X50257Y93389I2191J0D01*
G01*
G75*
G03*
X50569Y94004I-1890J1344D01*
G01*
Y108414D01*
G75*
G03*
X49964Y109422I-2498J-814D01*
G01*
X49590D01*
Y118410D01*
X53854D01*
Y109422D01*
X53480D01*
G75*
G03*
X52876Y108414I1894J-1822D01*
G01*
Y108115D01*
X55569D01*
Y108414D01*
G75*
G03*
X54964Y109422I-2498J-814D01*
G01*
X54590D01*
Y118410D01*
X58854D01*
Y109422D01*
X58480D01*
G75*
G03*
X57876Y108414I1894J-1822D01*
G01*
Y108115D01*
X60569D01*
Y108414D01*
G75*
G03*
X59964Y109422I-2498J-814D01*
G01*
X59590D01*
Y118410D01*
X63854D01*
Y109422D01*
X63480D01*
G75*
G03*
X62876Y108414I1894J-1822D01*
G01*
Y108115D01*
X65569D01*
Y108414D01*
G75*
G03*
X64964Y109422I-2498J-814D01*
G01*
X64590D01*
Y118410D01*
X68854D01*
Y109422D01*
X68480D01*
G75*
G03*
X67876Y108414I1894J-1822D01*
G01*
Y108115D01*
X69717D01*
X70406Y108804D01*
G75*
G03*
X69964Y109422I-2337J-1204D01*
G01*
X69590D01*
Y118410D01*
X73854D01*
Y109422D01*
X73480D01*
G75*
G03*
X72872Y108404I1894J-1822D01*
G01*
G75*
G02*
X72813Y108115I-1151J85D01*
G01*
X74322D01*
X75569Y109362D01*
Y109422D01*
X74590D01*
Y118411D01*
X78480Y81599D02*
X78854D01*
Y72611D01*
X74590D01*
Y81599D01*
X74964D01*
G75*
G03*
X75436Y82278I-1894J1821D01*
G01*
G75*
G02*
X75159Y83029I876J750D01*
G01*
Y83157D01*
G75*
G03*
X74847Y83771I-2202J-730D01*
G01*
G75*
G02*
X74121Y85400I1465J1629D01*
G01*
G75*
G02*
X78503I2191J0D01*
G01*
G75*
G02*
X77776Y83770I-2191J0D01*
G01*
G75*
G03*
X77565Y83407I1887J-1341D01*
G01*
G75*
G02*
X77876Y82619I-843J-788D01*
G01*
Y82607D01*
G75*
G03*
X78480Y81599I2498J814D01*
G01*
X64590Y81600D02*
X68854D01*
Y72611D01*
X64590D01*
Y81600D01*
X69590Y81599D02*
X73854D01*
Y72611D01*
X73480D01*
G75*
G03*
X72876Y71603I1894J-1822D01*
G01*
Y65090D01*
G75*
G02*
X72536Y64273I-1154J0D01*
G01*
X70471Y62208D01*
Y61513D01*
X72317D01*
Y55871D01*
X66320D01*
Y61513D01*
X68164D01*
Y62686D01*
G75*
G02*
X68504Y63503I1154J0D01*
G01*
X70569Y65568D01*
Y71603D01*
G75*
G03*
X69964Y72611I-2498J-814D01*
G01*
X69590D01*
Y81599D01*
X66994Y51781D02*
X72643D01*
Y46131D01*
X66994D01*
Y51781D01*
X63808Y71448D02*
G75*
G02*
X66115Y69260I116J-2188D01*
G01*
G75*
G02*
X61733I-2191J0D01*
G01*
G75*
G02*
X61737Y69376I2185J-1D01*
G01*
G75*
G03*
X61523Y70030I-2289J-386D01*
G01*
X60908Y70646D01*
G75*
G02*
X60569Y71463I814J817D01*
G01*
Y71603D01*
G75*
G03*
X59964Y72611I-2498J-814D01*
G01*
X59590D01*
Y81599D01*
X63854D01*
Y72611D01*
X63480D01*
G75*
G03*
X62969Y71847I1894J-1822D01*
G01*
X63154Y71662D01*
G75*
G03*
X63808Y71448I1040J2075D01*
G01*
X54590Y81600D02*
X58854D01*
Y72611D01*
X54590D01*
Y81600D01*
X49590D02*
X53854D01*
Y72611D01*
X49590D01*
Y81600D01*
X70222Y187745D02*
X76265D01*
Y182489D01*
X70222D01*
Y187745D01*
X93844D02*
X99887D01*
Y182489D01*
X93844D01*
Y187745D01*
X61580Y159230D02*
X68372D01*
Y152793D01*
X61580D01*
Y159230D01*
X61704Y151241D02*
X68496D01*
Y144804D01*
X61704D01*
Y151241D01*
X59154Y158832D02*
X60974D01*
Y153190D01*
X54978D01*
Y158832D01*
X56796D01*
G75*
G03*
X56510Y159373I-2176J-803D01*
G01*
G75*
G02*
X55784Y161002I1465J1629D01*
G01*
G75*
G02*
X60166I2191J0D01*
G01*
G75*
G02*
X59439Y159372I-2191J0D01*
G01*
G75*
G03*
X59154Y158832I1886J-1342D01*
G01*
X61383Y130607D02*
X67383D01*
Y125308D01*
X61383D01*
Y125706D01*
X57542D01*
G75*
G02*
X57528I-7J1423D01*
G01*
X56683D01*
Y125951D01*
G75*
G02*
X56402Y126175I853J1357D01*
G01*
G75*
G03*
X56144Y126356I-640J-639D01*
G01*
X54950D01*
Y123501D01*
G75*
G02*
X54951Y123466I-1598J-35D01*
G01*
G75*
G02*
Y123465I-4101J0D01*
G01*
G75*
G02*
X50979Y119491I-3974J0D01*
G01*
G75*
G02*
X50978I0J1781D01*
G01*
X49230D01*
G75*
G03*
X48338Y118744I0J-906D01*
G01*
G75*
G03*
X48384Y118690I363J263D01*
G01*
G75*
G02*
X48608Y118410I-1133J-1133D01*
G01*
X48854D01*
Y109422D01*
X44590D01*
Y118410D01*
X44836D01*
G75*
G02*
X45059Y118690I1357J-853D01*
G01*
G75*
G03*
X45124Y118772I-318J317D01*
G01*
G75*
G02*
X49230Y122696I4106J-186D01*
G01*
X50978D01*
G75*
G03*
X51746Y123445I-1J769D01*
G01*
G75*
G02*
Y123466I1611J11D01*
G01*
Y126710D01*
G75*
G02*
X51746Y126763I1599J3D01*
G01*
G75*
G02*
X54595Y129560I2850J-54D01*
G01*
G75*
G02*
X54596I1J-1611D01*
G01*
X56144D01*
G75*
G03*
X56402Y129741I-386J824D01*
G01*
G75*
G02*
X56683Y129965I1134J-1133D01*
G01*
Y130210D01*
X57528D01*
G75*
G02*
X57542I7J-1423D01*
G01*
X61383D01*
Y130607D01*
X44590Y81600D02*
X48854D01*
Y72611D01*
X44590D01*
Y81600D01*
X61961Y65157D02*
X62333D01*
Y55972D01*
X59054D01*
Y65157D01*
X59426D01*
G75*
G03*
X59540Y65335I-545J475D01*
G01*
Y67717D01*
X57987Y69270D01*
X51266D01*
X52059Y68477D01*
G75*
G02*
X52398Y67660I-814J-817D01*
G01*
Y65335D01*
G75*
G03*
X52513Y65157I663J298D01*
G01*
X52885D01*
Y55972D01*
X49605D01*
Y65157D01*
X49977D01*
G75*
G03*
X50091Y65335I-545J475D01*
G01*
Y67182D01*
X49501Y67772D01*
X38746D01*
G75*
G02*
X37930Y68112I0J1154D01*
G01*
X35908Y70133D01*
G75*
G02*
X35569Y70950I814J817D01*
G01*
Y71603D01*
G75*
G03*
X34964Y72611I-2498J-814D01*
G01*
X34590D01*
Y81599D01*
X38854D01*
Y73044D01*
X39590D01*
Y81599D01*
X43854D01*
Y73044D01*
X43864D01*
Y71577D01*
X58465D01*
G75*
G02*
X59282Y71238I0J-1154D01*
G01*
X61508Y69012D01*
G75*
G02*
X61847Y68195I-814J-817D01*
G01*
Y65335D01*
G75*
G03*
X61961Y65157I663J298D01*
G01*
X53931Y65554D02*
X58006D01*
Y55574D01*
X53931D01*
Y65554D01*
X29193Y118808D02*
X34252D01*
Y109025D01*
X29193D01*
Y118808D01*
X29305Y85899D02*
G75*
G02*
X34210I2452J0D01*
G01*
G75*
G02*
X33938Y84776I-2453J0D01*
G01*
G75*
G02*
X33074Y83222I-2216J214D01*
G01*
Y82303D01*
G75*
G03*
X33458Y81703I1561J575D01*
G01*
G75*
G02*
X33552Y81599I-956J-956D01*
G01*
X33854D01*
Y80771D01*
G75*
G02*
Y80759I-1244J-6D01*
G01*
Y80759D01*
G75*
G02*
Y80746I-1648J-6D01*
G01*
G75*
G02*
Y80735I-1244J-6D01*
G01*
Y80734D01*
G75*
G02*
Y80722I-1648J-6D01*
G01*
X33854Y72611D01*
X29590D01*
Y80722D01*
G75*
G02*
Y80733I1244J6D01*
G01*
G75*
G02*
Y80734I1289J0D01*
G01*
G75*
G02*
Y80746I1596J6D01*
G01*
G75*
G02*
Y80758I1244J6D01*
G01*
G75*
G02*
Y80759I1289J0D01*
G01*
G75*
G02*
Y80771I1596J6D01*
G01*
X29590Y81599D01*
X29893D01*
G75*
G02*
X29986Y81703I1050J-852D01*
G01*
G75*
G03*
X30370Y82302I-1173J1174D01*
G01*
Y83222D01*
G75*
G02*
X29496Y84950I1352J1768D01*
G01*
G75*
G02*
X29305Y85899I2261J950D01*
G01*
X29172Y48956D02*
G36*
X29172Y48956D02*
Y33109D01*
X29563D01*
G75*
G03*
X31358Y36757I-8985J6689D01*
G01*
Y44444D01*
G75*
G02*
X31383Y44684I1152J0D01*
G01*
Y48592D01*
G75*
G02*
X30862Y48956I639J1470D01*
G01*
X29172D01*
G37*
X66994Y46131D02*
G36*
X66994Y46131D02*
Y48956D01*
X63811D01*
X71442Y41325D01*
X73691D01*
G75*
G02*
X75178Y40709I-1J-2104D01*
G01*
X77198Y38689D01*
G75*
G02*
X77814Y37202I-1488J-1488D01*
G01*
Y35253D01*
G75*
G03*
X78948Y33109I6292J1954D01*
G01*
X79051D01*
Y48956D01*
X78742D01*
Y46529D01*
X73887D01*
Y48956D01*
X72643D01*
Y46131D01*
X66994D01*
G37*
X29172Y60564D02*
G36*
X29172Y60564D02*
Y48956D01*
X30862D01*
G75*
G02*
X30419Y50061I1160J1106D01*
G01*
Y56159D01*
G75*
G02*
X30405Y56372I1543J213D01*
G01*
G75*
G02*
Y56375I1529J2D01*
G01*
Y57611D01*
G75*
G03*
X30306Y57800I-1141J-479D01*
G01*
G75*
G02*
X29890Y58328I1694J1761D01*
G01*
G75*
G02*
X29876Y58352I785J468D01*
G01*
G75*
G02*
X29555Y59566I2131J1214D01*
G01*
G75*
G02*
X29767Y60564I2452J0D01*
G01*
X29172D01*
G37*
X34124Y58328D02*
G36*
X34124Y58328D02*
G75*
G02*
X33895Y58000I-2103J1228D01*
G01*
X34204D01*
X34209D01*
X37421D01*
Y57694D01*
X37685D01*
Y58000D01*
X40728D01*
G75*
G02*
X40163Y59565I1886J1565D01*
G01*
G75*
G02*
Y59566I2820J0D01*
G01*
G75*
G02*
X40376Y60564I2452J0D01*
G01*
X40303D01*
Y60537D01*
X34410D01*
X34320Y60381D01*
G75*
G02*
X34459Y59566I-2313J-815D01*
G01*
G75*
G02*
X34138Y58352I-2454J0D01*
G01*
G75*
G02*
X34124Y58328I-799J445D01*
G01*
G37*
X44856Y60564D02*
G36*
X44856Y60564D02*
G75*
G02*
X44995Y60159I-2240J-998D01*
G01*
X54968Y50186D01*
X61710D01*
G75*
G02*
X63197Y49570I-1J-2104D01*
G01*
X63811Y48956D01*
X66994D01*
Y51781D01*
X72643D01*
Y48956D01*
X73887D01*
Y51383D01*
X75164D01*
Y55871D01*
X73320D01*
Y60564D01*
X72317D01*
Y55871D01*
X66320D01*
Y60564D01*
X62333D01*
Y55972D01*
X59054D01*
Y60564D01*
X58006D01*
Y55574D01*
X53931D01*
Y60564D01*
X52885D01*
Y55972D01*
X49605D01*
Y60564D01*
X44856D01*
G37*
X77471Y55871D02*
G36*
X77471Y55871D02*
Y51383D01*
X78742D01*
Y48956D01*
X79051D01*
Y55871D01*
X77471D01*
G37*
X29151Y80101D02*
G36*
X29151Y80101D02*
Y76471D01*
G75*
G02*
X29172Y76136I-2720J-341D01*
G01*
Y60564D01*
X29767D01*
G75*
G02*
X29866Y60762I2240J-996D01*
G01*
G75*
G02*
X29781Y60933I2063J1139D01*
G01*
X29600D01*
Y61759D01*
Y61772D01*
Y61785D01*
Y61798D01*
Y61811D01*
Y65437D01*
X34303D01*
Y65836D01*
X40303D01*
Y60564D01*
X40376D01*
G75*
G02*
X44856I2240J-999D01*
G01*
X49605D01*
Y65157D01*
X49977D01*
G75*
G03*
X50091Y65335I-530J465D01*
G01*
Y67182D01*
X49501Y67772D01*
X38746D01*
G75*
G02*
X37930Y68112I0J1154D01*
G01*
X35908Y70133D01*
G75*
G02*
X35569Y70950I814J817D01*
G01*
Y71603D01*
G75*
G03*
X34964Y72611I-2498J-813D01*
G01*
X34590D01*
Y80101D01*
X33854D01*
X33854Y72611D01*
X29590D01*
Y80101D01*
X29151D01*
G37*
X38854D02*
G36*
X38854Y80101D02*
Y73044D01*
X39590D01*
Y80101D01*
X38854D01*
G37*
X43854D02*
G36*
X43854Y80101D02*
Y73044D01*
X43864D01*
Y71577D01*
X58465D01*
G75*
G02*
X59282Y71238I0J-1154D01*
G01*
X61508Y69012D01*
G75*
G02*
X61847Y68195I-814J-817D01*
G01*
Y65335D01*
G75*
G03*
X61961Y65157I648J288D01*
G01*
X62333D01*
Y60564D01*
X66320D01*
Y61513D01*
X68164D01*
Y62686D01*
G75*
G02*
X68504Y63503I1154J0D01*
G01*
X70569Y65568D01*
Y71603D01*
G75*
G03*
X69964Y72611I-2498J-813D01*
G01*
X69590D01*
Y80101D01*
X68854D01*
Y72611D01*
X64590D01*
Y80101D01*
X63854D01*
Y72611D01*
X63480D01*
G75*
G03*
X62969Y71847I1889J-1819D01*
G01*
X63154Y71662D01*
G75*
G03*
X63808Y71448I1043J2085D01*
G01*
G75*
G02*
X66115Y69260I116J-2188D01*
G01*
G75*
G02*
X61733I-2191J0D01*
G01*
Y69261D01*
G75*
G02*
X61737Y69376I2130J0D01*
G01*
G75*
G03*
X61523Y70030I-2298J-389D01*
G01*
X60908Y70646D01*
G75*
G02*
X60569Y71463I814J817D01*
G01*
Y71603D01*
G75*
G03*
X59964Y72611I-2498J-813D01*
G01*
X59590D01*
Y80101D01*
X58854D01*
Y72611D01*
X54590D01*
Y80101D01*
X53854D01*
Y72611D01*
X49590D01*
Y80101D01*
X48854D01*
Y72611D01*
X44590D01*
Y80101D01*
X43854D01*
G37*
X51266Y69270D02*
G36*
X51266Y69270D02*
X52059Y68477D01*
G75*
G02*
X52398Y67660I-814J-817D01*
G01*
Y65335D01*
G75*
G03*
X52513Y65157I648J288D01*
G01*
X52885D01*
Y60564D01*
X53931D01*
Y65554D01*
X58006D01*
Y60564D01*
X59054D01*
Y65157D01*
X59426D01*
G75*
G03*
X59540Y65335I-530J465D01*
G01*
Y67717D01*
X57987Y69270D01*
X51266D01*
G37*
X70471Y62208D02*
G36*
X70471Y62208D02*
Y61513D01*
X72317D01*
Y60564D01*
X73320D01*
Y61513D01*
X79051D01*
Y76138D01*
G75*
G02*
X79072Y76472I2741J-6D01*
G01*
Y80101D01*
X78854D01*
Y72611D01*
X74590D01*
Y80101D01*
X73854D01*
Y72611D01*
X73480D01*
G75*
G03*
X72876Y71603I1893J-1821D01*
G01*
Y65090D01*
G75*
G02*
X72536Y64273I-1154J0D01*
G01*
X70471Y62208D01*
G37*
X29151Y103990D02*
G36*
X29151Y103990D02*
Y80101D01*
X29590D01*
Y80722D01*
Y80733D01*
Y80734D01*
Y80746D01*
Y80758D01*
Y80759D01*
Y80771D01*
X29590Y81599D01*
X29893D01*
G75*
G02*
X29986Y81703I1136J-930D01*
G01*
G75*
G03*
X30370Y82302I-1181J1178D01*
G01*
Y83222D01*
G75*
G02*
X29496Y84950I1352J1768D01*
G01*
G75*
G02*
X29305Y85899I2267J951D01*
G01*
G75*
G02*
X34210I2452J0D01*
G01*
Y85899D01*
G75*
G02*
X33938Y84776I-2452J0D01*
G01*
G75*
G02*
X33074Y83222I-2216J214D01*
G01*
Y82303D01*
G75*
G03*
X33458Y81703I1565J578D01*
G01*
G75*
G02*
X33552Y81599I-1043J-1034D01*
G01*
X33854D01*
Y80771D01*
Y80759D01*
Y80759D01*
Y80746D01*
Y80735D01*
Y80734D01*
Y80722D01*
Y80101D01*
X34590D01*
Y81599D01*
X38854D01*
Y80101D01*
X39590D01*
Y81599D01*
X43854D01*
Y80101D01*
X44590D01*
Y81600D01*
X48854D01*
Y80101D01*
X49590D01*
Y81600D01*
X53854D01*
Y80101D01*
X54590D01*
Y81600D01*
X58854D01*
Y80101D01*
X59590D01*
Y81599D01*
X63854D01*
Y80101D01*
X64590D01*
Y81600D01*
X68854D01*
Y80101D01*
X69590D01*
Y81599D01*
X73854D01*
Y80101D01*
X74590D01*
Y81599D01*
X74964D01*
G75*
G03*
X75436Y82278I-1901J1826D01*
G01*
G75*
G02*
X75159Y83029I876J751D01*
G01*
Y83157D01*
G75*
G03*
X74847Y83771I-2201J-730D01*
G01*
G75*
G02*
X74121Y85400I1466J1630D01*
G01*
G75*
G02*
X78503I2191J0D01*
G01*
G75*
G02*
X77776Y83770I-2191J0D01*
G01*
G75*
G03*
X77565Y83407I1911J-1355D01*
G01*
G75*
G02*
X77876Y82619I-843J-788D01*
G01*
Y82607D01*
G75*
G03*
X78480Y81599I2498J813D01*
G01*
X78854D01*
Y80101D01*
X79072D01*
Y103990D01*
X74366D01*
G75*
G02*
X70050I-2158J380D01*
G01*
X68855D01*
X62489Y97624D01*
Y94131D01*
G75*
G03*
X62800Y93520I2199J730D01*
G01*
G75*
G02*
X63527Y91890I-1464J-1630D01*
G01*
G75*
G02*
X59145I-2191J0D01*
G01*
G75*
G02*
X59871Y93519I2192J0D01*
G01*
G75*
G03*
X60182Y94133I-1875J1337D01*
G01*
Y95130D01*
G75*
G02*
X57497Y94936I-1467J1626D01*
G01*
Y94007D01*
G75*
G03*
X57807Y93395I2199J730D01*
G01*
G75*
G02*
X58535Y91765I-1464J-1630D01*
G01*
G75*
G02*
X54153I-2191J0D01*
G01*
G75*
G02*
X54879Y93394I2192J0D01*
G01*
G75*
G03*
X55190Y94008I-1875J1337D01*
G01*
Y94858D01*
G75*
G02*
X52876Y94938I-1093J1898D01*
G01*
Y94002D01*
G75*
G03*
X53186Y93390I2199J730D01*
G01*
G75*
G02*
X53913Y91760I-1464J-1630D01*
G01*
G75*
G02*
X49531I-2191J0D01*
G01*
G75*
G02*
X50257Y93389I2192J0D01*
G01*
G75*
G03*
X50569Y94004I-1875J1337D01*
G01*
Y103990D01*
X29151D01*
G37*
Y112493D02*
G36*
X29151Y112493D02*
Y103990D01*
X50569D01*
Y108414D01*
G75*
G03*
X49964Y109422I-2498J-813D01*
G01*
X49590D01*
Y113917D01*
X48854D01*
Y109422D01*
X44590D01*
Y113917D01*
X43854D01*
Y109422D01*
X39590D01*
Y109485D01*
X38854D01*
Y109422D01*
X34590D01*
Y113917D01*
X34252D01*
Y109025D01*
X29193D01*
Y113917D01*
X29172D01*
Y112828D01*
G75*
G02*
X29151Y112493I-2741J6D01*
G01*
G37*
X52876Y108414D02*
G36*
X52876Y108414D02*
Y108115D01*
X55569D01*
Y108414D01*
G75*
G03*
X54964Y109422I-2498J-813D01*
G01*
X54590D01*
Y113917D01*
X53854D01*
Y109422D01*
X53480D01*
G75*
G03*
X52876Y108414I1893J-1821D01*
G01*
G37*
X57876D02*
G36*
X57876Y108414D02*
Y108115D01*
X60569D01*
Y108414D01*
G75*
G03*
X59964Y109422I-2498J-813D01*
G01*
X59590D01*
Y113917D01*
X58854D01*
Y109422D01*
X58480D01*
G75*
G03*
X57876Y108414I1893J-1821D01*
G01*
G37*
X62876D02*
G36*
X62876Y108414D02*
Y108115D01*
X65569D01*
Y108414D01*
G75*
G03*
X64964Y109422I-2498J-813D01*
G01*
X64590D01*
Y113917D01*
X63854D01*
Y109422D01*
X63480D01*
G75*
G03*
X62876Y108414I1893J-1821D01*
G01*
G37*
X67876D02*
G36*
X67876Y108414D02*
Y108115D01*
X69717D01*
X70406Y108804D01*
G75*
G03*
X69964Y109422I-2322J-1194D01*
G01*
X69590D01*
Y113917D01*
X68854D01*
Y109422D01*
X68480D01*
G75*
G03*
X67876Y108414I1893J-1821D01*
G01*
G37*
X70017Y104370D02*
G36*
X70017Y104370D02*
Y104370D01*
G75*
G02*
X70286Y105421I2189J0D01*
G01*
X68855Y103990D01*
X70050D01*
G75*
G02*
X70017Y104370I2158J379D01*
G01*
G37*
X72872Y108404D02*
G36*
X72872Y108404D02*
G75*
G02*
X72813Y108115I-1129J80D01*
G01*
X74322D01*
X75569Y109362D01*
Y109422D01*
X74590D01*
Y113917D01*
X73854D01*
Y109422D01*
X73480D01*
G75*
G03*
X72872Y108404I1890J-1820D01*
G01*
G37*
X74399Y104370D02*
G36*
X74399Y104370D02*
G75*
G02*
X74366Y103990I-2191J-1D01*
G01*
X79072D01*
Y112494D01*
G75*
G02*
X79051Y112828I2720J341D01*
G01*
Y113917D01*
X78854D01*
Y109422D01*
X77876D01*
Y108884D01*
G75*
G02*
X77536Y108067I-1154J0D01*
G01*
X74610Y105140D01*
G75*
G03*
X74396Y104486I2085J-1043D01*
G01*
G75*
G02*
X74399Y104370I-2126J-116D01*
G01*
Y104370D01*
G37*
X29172Y120015D02*
G36*
X29172Y120015D02*
Y113917D01*
X29193D01*
Y118808D01*
X34252D01*
Y113917D01*
X34590D01*
Y117539D01*
Y117548D01*
Y117548D01*
Y117549D01*
Y117557D01*
Y117566D01*
Y117567D01*
Y117567D01*
Y117576D01*
Y118410D01*
X34943D01*
G75*
G03*
X35515Y119336I-1682J1681D01*
G01*
Y120015D01*
X29172D01*
G37*
X42929D02*
G36*
X42929Y120015D02*
Y119336D01*
G75*
G03*
X43500Y118411I2257J756D01*
G01*
X43854Y118410D01*
Y113917D01*
X44590D01*
Y118410D01*
X44836D01*
G75*
G02*
X45059Y118690I1354J-851D01*
G01*
G75*
G03*
X45124Y118772I-314J314D01*
G01*
G75*
G02*
X45376Y120015I4106J-186D01*
G01*
X42929D01*
G37*
X48338Y118744D02*
G36*
X48338Y118744D02*
G75*
G03*
X48384Y118690I367J267D01*
G01*
G75*
G02*
X48608Y118410I-1130J-1131D01*
G01*
X48854D01*
Y113917D01*
X49590D01*
Y118410D01*
X53854D01*
Y113917D01*
X54590D01*
Y118410D01*
X58854D01*
Y113917D01*
X59590D01*
Y118410D01*
X63854D01*
Y113917D01*
X64590D01*
Y118410D01*
X68854D01*
Y113917D01*
X69590D01*
Y118410D01*
X73854D01*
Y113917D01*
X74590D01*
Y118411D01*
X78854D01*
Y113917D01*
X79051D01*
Y120015D01*
X52948D01*
G75*
G02*
X50979Y119491I-1971J3450D01*
G01*
X50978D01*
X49230D01*
G75*
G03*
X48338Y118744I0J-905D01*
G01*
G37*
X29172Y136204D02*
G36*
X29172Y136204D02*
Y120015D01*
X35515D01*
Y125836D01*
G75*
G02*
X41118Y131439I5602J0D01*
G01*
X41742D01*
G75*
G03*
X44918Y134615I0J3176D01*
G01*
Y148023D01*
X40992D01*
Y137442D01*
G75*
G02*
X39746Y136196I-1246J0D01*
G01*
X29316D01*
G75*
G02*
X29172Y136204I-4J1193D01*
G01*
G37*
X42929Y126585D02*
G36*
X42929Y126585D02*
Y120015D01*
X45376D01*
G75*
G02*
X49230Y122696I3854J-1429D01*
G01*
X50978D01*
G75*
G03*
X51746Y123445I-1J769D01*
G01*
Y123466D01*
Y126710D01*
G75*
G02*
Y126723I911J7D01*
G01*
G75*
G02*
X51746Y126763I911J2D01*
G01*
G75*
G02*
X54595Y129560I2850J-54D01*
G01*
X54596D01*
X56144D01*
G75*
G03*
X56402Y129741I-386J823D01*
G01*
G75*
G02*
X56683Y129965I1131J-1130D01*
G01*
Y130210D01*
X57528D01*
X57542D01*
X61383D01*
Y130607D01*
X67383D01*
Y125308D01*
X61383D01*
Y125706D01*
X57542D01*
X57528D01*
X56683D01*
Y125951D01*
G75*
G02*
X56402Y126175I851J1354D01*
G01*
G75*
G03*
X56144Y126356I-640J-639D01*
G01*
X54950D01*
Y123501D01*
G75*
G02*
X54951Y123475I-791J-25D01*
G01*
G75*
G02*
Y123466I-816J-4D01*
G01*
Y123465D01*
Y123465D01*
G75*
G02*
X52948Y120015I-3973J0D01*
G01*
X79051D01*
Y148023D01*
X68496D01*
Y144804D01*
X61704D01*
Y148023D01*
X61098D01*
Y145202D01*
X55102D01*
Y146869D01*
X54739D01*
G75*
G02*
X53920Y147207I-4J1151D01*
G01*
X53104Y148023D01*
X48704D01*
Y125746D01*
G75*
G02*
X45985Y123027I-2719J0D01*
G01*
G75*
G02*
X43406Y125606I0J2580D01*
G01*
Y126480D01*
G75*
G03*
X43239Y126646I-166J0D01*
G01*
X42990D01*
G75*
G03*
X42929Y126585I0J-61D01*
G01*
Y126585D01*
G37*
X40992Y149021D02*
G36*
X40992Y149021D02*
Y148023D01*
X44918D01*
Y156011D01*
X40992D01*
Y150519D01*
G75*
G02*
Y150518I-1504J0D01*
G01*
G75*
G02*
X40741Y149770I-1243J0D01*
G01*
G75*
G02*
X40992Y149021I-994J-749D01*
G01*
Y149021D01*
G37*
X48704Y156011D02*
G36*
X48704Y156011D02*
Y148023D01*
X53104D01*
X52909Y148219D01*
G75*
G02*
X52571Y149034I817J816D01*
G01*
Y149035D01*
Y149037D01*
Y156011D01*
X48704D01*
G37*
X54878D02*
G36*
X54878Y156011D02*
Y149512D01*
X55102Y149288D01*
Y150844D01*
X61098D01*
Y148023D01*
X61704D01*
Y151241D01*
X68496D01*
Y148023D01*
X79051D01*
Y156011D01*
X68372D01*
Y152793D01*
X61580D01*
Y156011D01*
X60974D01*
Y153190D01*
X54978D01*
Y156011D01*
X54878D01*
G37*
X20657Y185117D02*
G36*
X20657Y185117D02*
Y181763D01*
X23013D01*
G75*
G02*
X24263Y180513I0J-1250D01*
G01*
Y175733D01*
X24533D01*
G75*
G02*
X27176Y173091I0J-2642D01*
G01*
Y164688D01*
G75*
G02*
X29172Y162126I-645J-2562D01*
G01*
Y160991D01*
G75*
G02*
X29316Y160999I140J-1185D01*
G01*
X37752D01*
Y163419D01*
X33773D01*
Y164451D01*
G75*
G02*
X28576Y166989I-1978J2539D01*
G01*
Y171320D01*
G75*
G02*
X35013I3219J0D01*
G01*
Y170407D01*
X35418D01*
G75*
G02*
X35293Y171124I2007J718D01*
G01*
G75*
G02*
X38531Y172947I2132J0D01*
G01*
Y173105D01*
Y173107D01*
Y173108D01*
G75*
G02*
X39001Y174241I1603J0D01*
G01*
X40623Y175864D01*
G75*
G02*
X41759Y176333I1133J-1132D01*
G01*
X45126D01*
G75*
G02*
X46261Y175862I0J-1602D01*
G01*
X48161Y173962D01*
X55110D01*
G75*
G02*
X56245Y173491I0J-1602D01*
G01*
X58109Y171626D01*
G75*
G02*
X62313Y171124I2072J-502D01*
G01*
G75*
G02*
X62189Y170407I-2144J2D01*
G01*
X62592D01*
Y171320D01*
G75*
G02*
X69029I3219J0D01*
G01*
Y166989D01*
G75*
G02*
X63832Y164451I-3219J0D01*
G01*
Y163419D01*
X58970D01*
Y163816D01*
X55167D01*
Y163815D01*
X54878D01*
Y156011D01*
X54978D01*
Y158832D01*
X56796D01*
G75*
G03*
X56510Y159373I-2153J-791D01*
G01*
G75*
G02*
X55784Y161002I1466J1630D01*
G01*
G75*
G02*
X60166I2191J0D01*
G01*
G75*
G02*
X59439Y159372I-2191J0D01*
G01*
G75*
G03*
X59154Y158832I1879J-1338D01*
G01*
X60974D01*
Y156011D01*
X61580D01*
Y159230D01*
X68372D01*
Y156011D01*
X79051D01*
Y162126D01*
G75*
G02*
X81047Y164688I2642J0D01*
G01*
Y173090D01*
Y173090D01*
G75*
G02*
X81896Y175030I2642J0D01*
G01*
X78849D01*
X78502Y174683D01*
G75*
G02*
X74121Y174759I-2190J76D01*
G01*
G75*
G02*
X76236Y176949I2191J0D01*
G01*
X77050Y177763D01*
G75*
G02*
X77778Y178182I1133J-1129D01*
G01*
X75398D01*
X74398Y177182D01*
G75*
G02*
X70017Y177259I-2190J76D01*
G01*
G75*
G02*
X72132Y179448I2191J0D01*
G01*
X73599Y180915D01*
G75*
G02*
X74734Y181387I1135J-1130D01*
G01*
X79066D01*
X79083Y181396D01*
Y181641D01*
X79917D01*
X79954D01*
X82624D01*
Y182037D01*
X87486D01*
Y181641D01*
X91024D01*
Y177928D01*
X90778D01*
G75*
G02*
X90593Y177687I-1368J861D01*
G01*
Y176632D01*
G75*
G02*
Y176631I-1933J0D01*
G01*
G75*
G02*
X90316Y175733I-1599J0D01*
G01*
X100663D01*
Y185117D01*
X99887D01*
Y182489D01*
X93844D01*
Y185117D01*
X76265D01*
Y182489D01*
X70222D01*
Y185117D01*
X69029D01*
Y183446D01*
G75*
G02*
X62592I-3219J0D01*
G01*
Y185117D01*
X35013D01*
Y183446D01*
G75*
G02*
X28576I-3219J0D01*
G01*
Y185117D01*
X20657D01*
G37*
X40957Y163574D02*
G36*
X40957Y163574D02*
Y160046D01*
G75*
G02*
X40992Y159755I-1193J-291D01*
G01*
G75*
G02*
Y159753I-1200J-1D01*
G01*
Y156011D01*
X44918D01*
Y161509D01*
G75*
G02*
X44644Y162274I931J765D01*
G01*
G75*
G02*
Y162275I1611J0D01*
G01*
Y162276D01*
Y162278D01*
Y163815D01*
X44407D01*
Y163816D01*
X43356D01*
Y163815D01*
X41142D01*
G75*
G02*
X40957Y163574I-1368J861D01*
G01*
G37*
X48704Y161502D02*
G36*
X48704Y161502D02*
Y156011D01*
X52571D01*
Y162655D01*
G75*
G02*
X51132Y161956I-1438J1131D01*
G01*
X51131D01*
X48969D01*
G75*
G02*
X48704Y161502I-1155J370D01*
G01*
G37*
X8309Y188812D02*
G36*
X8309Y188812D02*
Y186381D01*
X19407D01*
G75*
G02*
X20657Y185131I0J-1250D01*
G01*
Y185117D01*
X28576D01*
Y187777D01*
G75*
G02*
X28747Y188812I3222J0D01*
G01*
X8309D01*
G37*
X35013Y187777D02*
G36*
X35013Y187777D02*
Y185117D01*
X62592D01*
Y187777D01*
G75*
G02*
X62763Y188812I3222J0D01*
G01*
X34843D01*
G75*
G02*
X35013Y187777I-3051J-1035D01*
G01*
G37*
X69029D02*
G36*
X69029Y187777D02*
Y185117D01*
X70222D01*
Y187745D01*
X76265D01*
Y185117D01*
X93844D01*
Y187745D01*
X99887D01*
Y185117D01*
X100663D01*
Y188812D01*
X68858D01*
G75*
G02*
X69029Y187777I-3051J-1035D01*
G01*
G37*
D02*
D14*
X31647Y139814D03*
X31757Y85899D03*
X32007Y59566D03*
X36375Y139814D03*
X42615Y59566D03*
D02*
D15*
X32007Y57866D02*
G75*
G03*
X31271Y59141I-2748J-736D01*
G01*
G75*
G03*
X32743I736J425D01*
G01*
G75*
G03*
X32007Y57866I2011J-2011D01*
G01*
G36*
X32007Y57866D02*
G75*
G03*
X31271Y59141I-2748J-736D01*
G01*
G75*
G03*
X32743I736J425D01*
G01*
G75*
G03*
X32007Y57866I2011J-2011D01*
G01*
G37*
Y59566D02*
Y56375D01*
X32022Y56361D01*
Y50061D02*
Y52227D01*
Y54195D02*
Y52227D01*
Y56361D02*
Y54195D01*
X32849Y141016D02*
G75*
G03*
X32468Y139594I2463J-1422D01*
G01*
G75*
G03*
X31427Y140635I-821J220D01*
G01*
G75*
G03*
X32849Y141016I0J2844D01*
G01*
G36*
X32849Y141016D02*
G75*
G03*
X32468Y139594I2463J-1422D01*
G01*
G75*
G03*
X31427Y140635I-821J220D01*
G01*
G75*
G03*
X32849Y141016I0J2844D01*
G01*
G37*
X34019Y142362D02*
G75*
G02*
X35375Y144711I5062J-1356D01*
G01*
X32662D01*
G75*
G02*
X34019Y142362I-3706J-3706D01*
G01*
G36*
X34019Y142362D02*
G75*
G02*
X35375Y144711I5062J-1356D01*
G01*
X32662D01*
G75*
G02*
X34019Y142362I-3706J-3706D01*
G01*
G37*
Y146227D02*
Y142185D01*
X31647Y139814D01*
X39354Y163921D02*
G75*
G02*
X39785Y164668I1609J-431D01*
G01*
X38923D01*
G75*
G02*
X39354Y163921I-1178J-1178D01*
G01*
G36*
X39354Y163921D02*
G75*
G02*
X39785Y164668I1609J-431D01*
G01*
X38923D01*
G75*
G02*
X39354Y163921I-1178J-1178D01*
G01*
G37*
Y166912D02*
Y156266D01*
Y166912D02*
Y169122D01*
X40134Y169902D01*
Y173108D01*
X41756Y174731D01*
X45126D01*
X47497Y172359D01*
X55110D01*
X58213Y169256D01*
X58252D01*
Y166912D01*
X46722Y118475D02*
G75*
G02*
X46193Y117557I-1977J530D01*
G01*
X47252D01*
G75*
G02*
X46722Y118475I1447J1447D01*
G01*
G36*
X46722Y118475D02*
G75*
G02*
X46193Y117557I-1977J530D01*
G01*
X47252D01*
G75*
G02*
X46722Y118475I1447J1447D01*
G01*
G37*
X56409Y127958D02*
G75*
G02*
X57535Y127308I-650J-2426D01*
G01*
Y128608D01*
G75*
G02*
X56409Y127958I-1776J1776D01*
G01*
G36*
X56409Y127958D02*
G75*
G02*
X57535Y127308I-650J-2426D01*
G01*
Y128608D01*
G75*
G02*
X56409Y127958I-1776J1776D01*
G01*
G37*
X59285D02*
X54596D01*
G75*
G03*
X53348Y126710I0J-1248D01*
G01*
Y123465D01*
G75*
G02*
X50977Y121094I-2371J0D01*
G01*
X49230D01*
G75*
G03*
X46722Y118586I0J-2508D01*
G01*
Y113916D01*
X72208Y177259D02*
X74734Y179784D01*
X81116D01*
X79495D02*
G75*
G02*
X79935Y179530I-254J-948D01*
G01*
Y180038D01*
G75*
G02*
X79495Y179784I-694J694D01*
G01*
G36*
X79495Y179784D02*
G75*
G02*
X79935Y179530I-254J-948D01*
G01*
Y180038D01*
G75*
G02*
X79495Y179784I-694J694D01*
G01*
G37*
X88990Y178033D02*
G75*
G02*
X89421Y178780I1609J-431D01*
G01*
X88559D01*
G75*
G02*
X88990Y178033I-1178J-1178D01*
G01*
G36*
X88990Y178033D02*
G75*
G02*
X89421Y178780I1609J-431D01*
G01*
X88559D01*
G75*
G02*
X88990Y178033I-1178J-1178D01*
G01*
G37*
Y179784D02*
Y176632D01*
X78185D01*
X76312Y174759D01*
D02*
D16*
X43628Y133795D03*
Y142531D03*
Y151268D03*
Y160129D03*
X49979Y123964D03*
X49993Y133795D03*
Y142531D03*
Y151268D03*
Y160129D03*
D02*
D17*
X24284Y185589D03*
X36140Y162126D03*
X38779Y184965D03*
X41991Y85400D03*
Y95384D03*
Y105369D03*
X42615Y65431D03*
X43379Y171899D03*
X43803Y46760D03*
X46424Y44589D03*
X47732Y61063D03*
X48731Y85525D03*
Y95384D03*
X48803Y41961D03*
Y185061D03*
X48856Y105369D03*
X51722Y91760D03*
X54097Y96757D03*
X55029Y142483D03*
X55096Y132483D03*
X56344Y91765D03*
X57975Y161002D03*
X58715Y96757D03*
X58803Y185061D03*
X61336Y91890D03*
X61350Y162250D03*
X61424Y42717D03*
X63924Y69260D03*
X66578Y65431D03*
X66702Y52826D03*
X67529Y132483D03*
Y142483D03*
X67576Y122467D03*
X68949Y85400D03*
Y95509D03*
X72208Y104370D03*
Y177259D03*
X76312Y85400D03*
Y174759D03*
X80029Y184983D03*
X90029D03*
D02*
D18*
X32512Y22750D03*
X43312D03*
X54112D03*
X64912D03*
X75712D03*
D02*
D20*
X31795Y169156D03*
Y185613D03*
X65811Y169156D03*
Y185613D03*
D02*
D83*
X31722Y77105D02*
Y85864D01*
X31757Y85899D01*
X31722Y82096D02*
G75*
G02*
X30943Y80746I-2909J780D01*
G01*
X32502D01*
G75*
G02*
X31722Y82096I2130J2130D01*
G01*
G36*
X31722Y82096D02*
G75*
G02*
X30943Y80746I-2909J780D01*
G01*
X32502D01*
G75*
G02*
X31722Y82096I2130J2130D01*
G01*
G37*
Y83700D02*
G75*
G03*
X30796Y85365I-3570J-895D01*
G01*
G75*
G03*
X32701Y85334I961J535D01*
G01*
G75*
G03*
X31722Y83700I2560J-2644D01*
G01*
G36*
X31722Y83700D02*
G75*
G03*
X30796Y85365I-3570J-895D01*
G01*
G75*
G03*
X32701Y85334I961J535D01*
G01*
G75*
G03*
X31722Y83700I2560J-2644D01*
G01*
G37*
Y110774D02*
Y108773D01*
Y117057D02*
Y119056D01*
X32412Y146227D02*
X30411D01*
X32412Y153313D02*
X30411D01*
X34019Y145211D02*
Y143210D01*
Y154329D02*
Y156328D01*
X35625Y146227D02*
X37624D01*
X35625Y153313D02*
X37624D01*
X36205Y165168D02*
Y163167D01*
X37303Y62285D02*
Y60285D01*
Y64085D02*
Y66084D01*
X38553Y63185D02*
X40553D01*
X55682Y60564D02*
X53683D01*
X55969Y57324D02*
Y55324D01*
Y63804D02*
Y65804D01*
X56257Y60564D02*
X58257D01*
X61402Y165168D02*
Y163167D01*
X63330Y156010D02*
X61328D01*
X63339Y126911D02*
X61483Y125056D01*
X63339Y129004D02*
X61483Y130859D01*
X63454Y148023D02*
X61454D01*
X64975Y154542D02*
Y152541D01*
Y157479D02*
Y159478D01*
X65100Y146554D02*
Y144554D01*
Y149491D02*
Y151491D01*
X65431Y126911D02*
X67287Y125056D01*
X65431Y129004D02*
X67287Y130859D01*
X66621Y156010D02*
X68620D01*
X66746Y148023D02*
X68746D01*
X68744Y48957D02*
X66746D01*
X69819Y47883D02*
Y45883D01*
Y50032D02*
Y52033D01*
X70894Y48957D02*
X72895D01*
X71970Y185119D02*
X69970D01*
X73242Y184241D02*
Y182241D01*
Y185997D02*
Y187997D01*
X74514Y185119D02*
X76513D01*
X84403Y180435D02*
X82549Y182289D01*
X85704Y180435D02*
X87557Y182289D01*
X95593Y185119D02*
X93592D01*
X96864Y184241D02*
Y182241D01*
Y185997D02*
Y187997D01*
X98136Y185119D02*
X100135D01*
D02*
D85*
X36722Y113916D02*
Y120692D01*
Y125836D01*
G75*
G02*
X41118Y130232I4396J0D01*
G01*
X41742D01*
G75*
G03*
X46124Y134615I0J4383D01*
G01*
Y162001D01*
X45850Y162275D01*
Y166912D01*
X36722Y119160D02*
G75*
G02*
X35797Y117557I-3452J925D01*
G01*
X37647D01*
G75*
G02*
X36722Y119160I2528J2528D01*
G01*
G36*
X36722Y119160D02*
G75*
G02*
X35797Y117557I-3452J925D01*
G01*
X37647D01*
G75*
G02*
X36722Y119160I2528J2528D01*
G01*
G37*
X41722D02*
G75*
G02*
X40797Y117557I-3452J925D01*
G01*
X42647D01*
G75*
G02*
X41722Y119160I2528J2528D01*
G01*
G36*
X41722Y119160D02*
G75*
G02*
X40797Y117557I-3452J925D01*
G01*
X42647D01*
G75*
G02*
X41722Y119160I2528J2528D01*
G01*
G37*
X45850Y164259D02*
G75*
G02*
X46087Y164668I881J-236D01*
G01*
X45614D01*
G75*
G02*
X45850Y164259I-645J-645D01*
G01*
G36*
X45850Y164259D02*
G75*
G02*
X46087Y164668I881J-236D01*
G01*
X45614D01*
G75*
G02*
X45850Y164259I-645J-645D01*
G01*
G37*
X47819Y163163D02*
Y162322D01*
X47497Y162001D01*
Y125746D01*
G75*
G02*
X45985Y124233I-1512J0D01*
G01*
G75*
G02*
X44612Y125606I0J1373D01*
G01*
Y126480D01*
G75*
G03*
X43239Y127853I-1373J0D01*
G01*
X42990D01*
G75*
G03*
X41722Y126585I0J-1268D01*
G01*
Y113916D01*
X47819Y164259D02*
G75*
G02*
X48055Y164668I881J-236D01*
G01*
X47583D01*
G75*
G02*
X47819Y164259I-645J-645D01*
G01*
G36*
X47819Y164259D02*
G75*
G02*
X48055Y164668I881J-236D01*
G01*
X47583D01*
G75*
G02*
X47819Y164259I-645J-645D01*
G01*
G37*
Y166912D02*
Y163163D01*
X51756Y164259D02*
G75*
G02*
X51992Y164668I881J-236D01*
G01*
X51520D01*
G75*
G02*
X51756Y164259I-645J-645D01*
G01*
G36*
X51756Y164259D02*
G75*
G02*
X51992Y164668I881J-236D01*
G01*
X51520D01*
G75*
G02*
X51756Y164259I-645J-645D01*
G01*
G37*
Y166912D02*
Y163787D01*
G75*
G02*
X51132Y163163I-624J0D01*
G01*
X47819D01*
D02*
D102*
X10274Y176464D02*
X9782Y176218D01*
X8798D01*
X8306Y176464D01*
X8059Y176956D01*
Y178432D01*
X8306Y178924D01*
X8798Y179170D01*
X9536D01*
X10028Y178924D01*
X10274Y178432D01*
Y177202D01*
X10028Y176956D01*
X9782Y177202D01*
Y178186D01*
X9536Y178432D01*
X8798D01*
X8552Y178186D01*
Y177202D01*
X8798Y176956D01*
X9536D01*
X9782Y177202D01*
X10737Y178186D02*
X11721Y176218D01*
X12705Y178186D01*
X13916Y176218D02*
X14408Y176464D01*
X14900Y176956D01*
X15146Y177694D01*
Y178432D01*
X14900Y178924D01*
X14408Y179170D01*
X13916D01*
X13424Y178924D01*
X13178Y178432D01*
X13424Y177940D01*
X13916Y177694D01*
X14408D01*
X14900Y177940D01*
X15146Y178432D01*
X16357Y176218D02*
X16849Y176464D01*
X17341Y176956D01*
X17587Y177694D01*
Y178432D01*
X17341Y178924D01*
X16849Y179170D01*
X16357D01*
X15865Y178924D01*
X15619Y178432D01*
X15865Y177940D01*
X16357Y177694D01*
X16849D01*
X17341Y177940D01*
X17587Y178432D01*
X18059Y176464D02*
X18552Y176218D01*
X19044D01*
X19536Y176464D01*
X19782Y176956D01*
X19536Y177448D01*
X19044Y177694D01*
X18552D01*
X19044D02*
X19536Y177940D01*
X19782Y178432D01*
X19536Y178924D01*
X19044Y179170D01*
X18552D01*
X18059Y178924D01*
X21002Y177694D02*
X21494D01*
X21987Y177940D01*
X22233Y178432D01*
X21987Y178924D01*
X21494Y179170D01*
X21002D01*
X20510Y178924D01*
X20264Y178432D01*
X20510Y177940D01*
X21002Y177694D01*
X20510Y177448D01*
X20264Y176956D01*
X20510Y176464D01*
X21002Y176218D01*
X21494D01*
X21987Y176464D01*
X22233Y176956D01*
X21987Y177448D01*
X21494Y177694D01*
X8309Y180835D02*
Y183788D01*
X10031D01*
X10524Y183542D01*
X10770Y183050D01*
X10524Y182558D01*
X10031Y182312D01*
X8309D01*
X10031D02*
X10770Y180835D01*
X13230Y181081D02*
X12984Y180835D01*
X12492D01*
X12000D01*
X11508Y181081D01*
X11262Y181574D01*
Y182312D01*
X11508Y182558D01*
X12000Y182804D01*
X12492D01*
X12984Y182558D01*
X13230Y182312D01*
Y182066D01*
X12984Y181820D01*
X12492Y181574D01*
X12000D01*
X11508Y181820D01*
X11262Y182066D01*
X13703Y182804D02*
X14687Y180835D01*
X15671Y182804D01*
X18604Y181328D02*
X18358Y181081D01*
X17866Y180835D01*
X17128D01*
X16636Y181081D01*
X16390Y181328D01*
X16144Y181820D01*
Y182804D01*
X16390Y183296D01*
X16636Y183542D01*
X17128Y183788D01*
X17866D01*
X18358Y183542D01*
X18604Y183296D01*
D02*
D104*
X7421Y91153D02*
Y94696D01*
X9281D01*
X9813Y94401D01*
X10078Y93811D01*
X9813Y93220D01*
X9281Y92925D01*
X7421D01*
X9281D02*
X10078Y91153D01*
X12736Y91448D02*
X12470Y91153D01*
X11939D01*
X11407D01*
X10876Y91448D01*
X10610Y92039D01*
Y92925D01*
X10876Y93220D01*
X11407Y93515D01*
X11939D01*
X12470Y93220D01*
X12736Y92925D01*
Y92630D01*
X12470Y92334D01*
X11939Y92039D01*
X11407D01*
X10876Y92334D01*
X10610Y92630D01*
X13246Y91153D02*
Y93515D01*
Y93220D02*
X13512Y93515D01*
X14043D01*
X14309Y93220D01*
Y92334D01*
Y93220D02*
X14575Y93515D01*
X15106D01*
X15372Y93220D01*
Y91153D01*
X15882Y92039D02*
X16148Y91448D01*
X16680Y91153D01*
X17211D01*
X17743Y91448D01*
X18008Y92039D01*
Y92630D01*
X17743Y93220D01*
X17211Y93515D01*
X16680D01*
X16148Y93220D01*
X15882Y92630D01*
Y92039D01*
X18519Y93515D02*
X19581Y91153D01*
X20644Y93515D01*
X23281Y91448D02*
X23015Y91153D01*
X22483D01*
X21952D01*
X21420Y91448D01*
X21155Y92039D01*
Y92925D01*
X21420Y93220D01*
X21952Y93515D01*
X22483D01*
X23015Y93220D01*
X23281Y92925D01*
Y92630D01*
X23015Y92334D01*
X22483Y92039D01*
X21952D01*
X21420Y92334D01*
X21155Y92630D01*
X7670Y20889D02*
Y24432D01*
X9531D01*
X10062Y24137D01*
X10328Y23546D01*
X10062Y22956D01*
X9531Y22661D01*
X7670D01*
X9531D02*
X10328Y20889D01*
X12985Y21184D02*
X12720Y20889D01*
X12188D01*
X11657D01*
X11125Y21184D01*
X10859Y21775D01*
Y22661D01*
X11125Y22956D01*
X11657Y23251D01*
X12188D01*
X12720Y22956D01*
X12985Y22661D01*
Y22365D01*
X12720Y22070D01*
X12188Y21775D01*
X11657D01*
X11125Y22070D01*
X10859Y22365D01*
X13496Y20889D02*
Y23251D01*
Y22956D02*
X13761Y23251D01*
X14293D01*
X14559Y22956D01*
Y22070D01*
Y22956D02*
X14824Y23251D01*
X15356D01*
X15622Y22956D01*
Y20889D01*
X16132Y21775D02*
X16398Y21184D01*
X16929Y20889D01*
X17461D01*
X17992Y21184D01*
X18258Y21775D01*
Y22365D01*
X17992Y22956D01*
X17461Y23251D01*
X16929D01*
X16398Y22956D01*
X16132Y22365D01*
Y21775D01*
X18768Y23251D02*
X19831Y20889D01*
X20894Y23251D01*
X23530Y21184D02*
X23265Y20889D01*
X22733D01*
X22202D01*
X21670Y21184D01*
X21404Y21775D01*
Y22661D01*
X21670Y22956D01*
X22202Y23251D01*
X22733D01*
X23265Y22956D01*
X23530Y22661D01*
Y22365D01*
X23265Y22070D01*
X22733Y21775D01*
X22202D01*
X21670Y22070D01*
X21404Y22365D01*
X85173Y20889D02*
Y24432D01*
X87033D01*
X87565Y24137D01*
X87831Y23546D01*
X87565Y22956D01*
X87033Y22661D01*
X85173D01*
X87033D02*
X87831Y20889D01*
X90488Y21184D02*
X90222Y20889D01*
X89691D01*
X89159D01*
X88628Y21184D01*
X88362Y21775D01*
Y22661D01*
X88628Y22956D01*
X89159Y23251D01*
X89691D01*
X90222Y22956D01*
X90488Y22661D01*
Y22365D01*
X90222Y22070D01*
X89691Y21775D01*
X89159D01*
X88628Y22070D01*
X88362Y22365D01*
X90998Y20889D02*
Y23251D01*
Y22956D02*
X91264Y23251D01*
X91796D01*
X92061Y22956D01*
Y22070D01*
Y22956D02*
X92327Y23251D01*
X92859D01*
X93124Y22956D01*
Y20889D01*
X93635Y21775D02*
X93900Y21184D01*
X94432Y20889D01*
X94963D01*
X95495Y21184D01*
X95761Y21775D01*
Y22365D01*
X95495Y22956D01*
X94963Y23251D01*
X94432D01*
X93900Y22956D01*
X93635Y22365D01*
Y21775D01*
X96271Y23251D02*
X97334Y20889D01*
X98397Y23251D01*
X101033Y21184D02*
X100767Y20889D01*
X100236D01*
X99704D01*
X99173Y21184D01*
X98907Y21775D01*
Y22661D01*
X99173Y22956D01*
X99704Y23251D01*
X100236D01*
X100767Y22956D01*
X101033Y22661D01*
Y22365D01*
X100767Y22070D01*
X100236Y21775D01*
X99704D01*
X99173Y22070D01*
X98907Y22365D01*
X85423Y91403D02*
Y94946D01*
X87283D01*
X87815Y94651D01*
X88080Y94060D01*
X87815Y93470D01*
X87283Y93174D01*
X85423D01*
X87283D02*
X88080Y91403D01*
X90738Y91698D02*
X90472Y91403D01*
X89941D01*
X89409D01*
X88878Y91698D01*
X88612Y92289D01*
Y93174D01*
X88878Y93470D01*
X89409Y93765D01*
X89941D01*
X90472Y93470D01*
X90738Y93174D01*
Y92879D01*
X90472Y92584D01*
X89941Y92289D01*
X89409D01*
X88878Y92584D01*
X88612Y92879D01*
X91248Y91403D02*
Y93765D01*
Y93470D02*
X91514Y93765D01*
X92045D01*
X92311Y93470D01*
Y92584D01*
Y93470D02*
X92577Y93765D01*
X93108D01*
X93374Y93470D01*
Y91403D01*
X93884Y92289D02*
X94150Y91698D01*
X94681Y91403D01*
X95213D01*
X95744Y91698D01*
X96010Y92289D01*
Y92879D01*
X95744Y93470D01*
X95213Y93765D01*
X94681D01*
X94150Y93470D01*
X93884Y92879D01*
Y92289D01*
X96520Y93765D02*
X97583Y91403D01*
X98646Y93765D01*
X101283Y91698D02*
X101017Y91403D01*
X100485D01*
X99954D01*
X99422Y91698D01*
X99157Y92289D01*
Y93174D01*
X99422Y93470D01*
X99954Y93765D01*
X100485D01*
X101017Y93470D01*
X101283Y93174D01*
Y92879D01*
X101017Y92584D01*
X100485Y92289D01*
X99954D01*
X99422Y92584D01*
X99157Y92879D01*
D02*
D105*
X81116Y179784D03*
X85053D03*
X88990D03*
D02*
D106*
X73242Y185119D03*
X96864D03*
D02*
D107*
X35388Y50061D03*
Y56361D03*
X39719Y50061D03*
Y56361D03*
D02*
D108*
X35388Y52227D03*
Y54195D03*
X39719Y52227D03*
Y54195D03*
D02*
D109*
X36205Y166912D03*
X39354D03*
X58252D03*
X61402D03*
D02*
D110*
X41913D03*
X43882D03*
X45850D03*
X47819D03*
X49787D03*
X51756D03*
X53724D03*
X55693D03*
D02*
D111*
X34019Y146227D03*
Y153313D03*
D02*
D112*
X57975Y156010D03*
X58100Y148023D03*
X64975Y156010D03*
X65100Y148023D03*
X69318Y58692D03*
X76318D03*
D02*
D113*
X51245Y60564D03*
X55969D03*
X60694D03*
D02*
D114*
X31722Y77105D03*
Y113916D03*
X36722Y77105D03*
Y113916D03*
X41722Y77105D03*
Y113916D03*
X46722Y77105D03*
Y113916D03*
X51722Y77105D03*
Y113916D03*
X56722Y77105D03*
Y113916D03*
X61722Y77105D03*
Y113916D03*
X66722Y77105D03*
Y113916D03*
X71722Y77105D03*
Y113916D03*
X76722Y77105D03*
Y113916D03*
D02*
D115*
X32203Y63185D03*
X37303D03*
X59285Y127958D03*
X64385D03*
D02*
D116*
X69819Y48957D03*
X76315D03*
X0Y0D02*
M02*
