G04 DesignSpark PCB PRO Gerber Version 10.0 Build 5299*
G04 #@! TF.Part,Single*
G04 #@! TF.FileFunction,Soldermask,Bot*
G04 #@! TF.FilePolarity,Negative*
%FSLAX35Y35*%
%MOIN*%
G04 #@! TA.AperFunction,ComponentPad*
%ADD27O,0.04137X0.08468*%
G04 #@! TD.AperFunction*
%ADD10C,0.00787*%
G04 #@! TA.AperFunction,ComponentPad*
%ADD29C,0.02562*%
G04 #@! TA.AperFunction,SMDPad,CuDef*
%AMT23*0 Offset Rectangle Pad at angle 180*4,1,4,0.03600,0.08411,-0.03600,0.08411,-0.03600,-0.03600,0.03600,-0.03600,0.03600,0.08411,0*%
%ADD23T23*%
G04 #@! TD.AperFunction*
X0Y0D02*
D02*
D10*
X5174Y15510D02*
Y28961D01*
X26530D01*
G75*
G03*
X27529Y29959I0J998D01*
G01*
Y76136D01*
G75*
G03*
X26530Y77135I-998J0D01*
G01*
X5174D01*
Y111829D01*
X26530D01*
G75*
G03*
X27529Y112828I0J998D01*
G01*
Y162126D01*
G75*
G03*
X26530Y163124I-998J0D01*
G01*
X25532D01*
Y173091D01*
G75*
G03*
X24533Y174090I-998J0D01*
G01*
X5174D01*
Y190706D01*
X103598D01*
Y174089D01*
X83690D01*
G75*
G03*
X82691Y173090I0J-999D01*
G01*
Y163124D01*
X81693D01*
G75*
G03*
X80695Y162126I0J-998D01*
G01*
Y112828D01*
G75*
G03*
X81693Y111830I998J0D01*
G01*
X103600D01*
Y77136D01*
X81693D01*
G75*
G03*
X80695Y76138I0J-998D01*
G01*
Y29959D01*
G75*
G03*
X81693Y28961I998J0D01*
G01*
X103600D01*
Y15510D01*
X5174D01*
D02*
D23*
X37912Y22750D03*
X48712D03*
X59512D03*
X70312D03*
D02*
D27*
X31795Y169156D03*
Y185613D03*
X65811Y169156D03*
Y185613D03*
D02*
D29*
X31795Y166991D03*
Y167766D03*
Y168565D03*
Y169746D03*
Y170534D03*
Y171321D03*
Y183447D03*
Y184235D03*
Y185022D03*
Y186203D03*
Y186991D03*
Y187778D03*
X65811Y166991D03*
Y167766D03*
Y168565D03*
Y169746D03*
Y170534D03*
Y171321D03*
Y183447D03*
Y184235D03*
Y185022D03*
Y186203D03*
Y186991D03*
Y187778D03*
X0Y0D02*
M02*
